<svg width="799" height="803" viewBox="0 0 799 803" fill="none" xmlns="http://www.w3.org/2000/svg">
<path d="M219.703 3.65678C213.403 11.1952 209.395 23.6956 207.772 40.6809C206.245 57.1891 205.864 59.7655 205.1 59.7655C203.478 59.7655 201.855 54.0402 201.378 46.5972C201.187 42.3031 200.614 38.4862 200.137 38.2954C196.988 36.2915 196.033 54.7081 198.801 64.3459C200.423 70.1667 200.423 70.3575 198.419 76.7509C194.983 87.0565 193.17 88.965 189.257 86.1977C187.634 84.9572 187.634 84.5755 189.734 75.892C191.452 69.2124 191.929 64.5367 191.834 57.7617C191.738 52.418 192.311 45.8338 193.17 42.0169C195.461 31.4249 195.842 28.2759 194.602 28.2759C191.834 28.2759 184.771 48.0285 183.53 59.2884C183.244 62.4374 181.812 68.1628 180.476 71.8843C178.377 78.0868 177.899 78.7547 176.277 77.8959C172.268 75.7012 171.696 71.7889 174.368 66.0635C177.518 59.193 178.186 56.2349 178.854 44.307C179.426 33.1425 181.431 23.9819 185.057 15.203C186.489 11.7677 185.726 10.241 183.626 11.9586C179.617 15.2984 174.177 32.0929 172.459 46.2155C171.505 54.3264 170.741 56.5212 165.969 64.0596L163.297 68.2582L155.28 63.487C150.89 60.9106 142.014 56.2349 135.619 53.0859C122.257 46.6926 116.817 42.0169 111.568 32.1883C105.937 21.5009 105.555 27.9897 111.091 42.0169C111.663 43.5436 111.568 43.639 109.754 42.6848C106.605 40.9672 102.978 35.7189 100.878 29.6119C97.8242 20.8329 96.7744 20.9284 97.5379 29.6119C98.3969 40.7764 101.26 46.3109 108.514 50.9866C111.663 53.0859 117.771 56.1395 122.162 57.9525C133.519 62.4374 151.176 73.7927 158.716 81.2357C162.629 85.2435 170.36 96.408 173.891 103.374C176.945 109.576 177.136 115.397 174.368 121.886C172.459 126.18 171.696 126.943 164.251 130.76C159.861 133.05 156.043 134.577 155.852 134.196C155.566 133.814 155.184 126.848 154.898 118.832C154.612 110.817 153.944 103.756 153.466 103.278C152.035 101.847 148.026 107 146.69 111.676C146.117 113.775 145.927 116.733 146.213 118.355C146.499 119.978 146.404 122.554 146.022 123.985L145.354 126.657L143.063 122.649C141.536 119.978 140.677 116.542 140.296 112.057C139.818 104.901 138.578 104.042 136.669 109.481C134.951 114.157 135.046 117.019 137.337 125.798C139.914 135.823 139.437 140.307 135.046 146.796C133.137 149.563 131.324 153.571 131.038 155.67C129.988 162.064 129.606 162.827 127.316 162.827C124.166 162.827 95.82 170.079 91.716 171.988C89.7117 172.942 86.8485 174.564 85.226 175.709C80.9312 178.858 73.6776 182.389 62.7019 186.588C57.2617 188.687 46.7632 192.885 39.4142 196.034C32.0653 199.183 23.0938 202.714 19.3716 203.859C5.34175 208.249 2.28763 211.207 1.23778 221.417C0.665128 226.952 0.760569 227.906 3.24204 232.104C4.67366 234.681 7.72777 238.975 9.92292 241.647C14.695 247.277 18.0354 248.231 27.675 246.704C32.5425 245.941 34.7376 246.132 44.8544 248.708C51.7262 250.426 58.9797 251.571 62.6064 251.571C69.6691 251.571 78.6406 254.052 87.5166 258.537L93.7203 261.59L95.82 268.461C96.9653 272.182 98.206 277.526 98.4923 280.388C102.405 312.355 107.941 328.577 125.407 358.731C127.22 361.784 128.652 364.456 128.652 364.742C128.652 367.033 137.432 377.434 148.694 388.503C169.978 409.4 179.426 419.229 187.444 429.153C191.643 434.21 198.324 442.131 202.428 446.806C210.827 456.253 216.839 467.322 218.462 476.387C220.18 485.739 223.043 496.808 224.761 500.529C226.765 504.824 238.123 516.179 244.804 520.664C249.671 523.908 249.767 524.194 249.862 528.488C249.862 532.878 247.858 552.344 246.044 565.035C245.472 568.662 244.422 576.391 243.563 582.212C241.177 599.388 239.554 605.877 235.164 615.323C229.533 627.347 226.288 637.08 225.047 645.668C223.807 653.874 219.798 669.905 217.317 676.203C216.362 678.589 213.69 685.65 211.304 692.044C206.245 705.594 197.56 725.823 193.934 732.217C192.597 734.793 189.925 738.61 188.207 740.805C186.394 742.999 182.481 749.488 179.617 755.118C172.364 769.241 161.293 780.119 146.117 788.421C140.2 791.57 138.578 792.906 138.387 794.814C138.196 796.532 138.673 797.581 140.009 798.249C143.541 800.158 155.471 802.162 163.392 802.162C174.559 802.162 177.327 800.062 184.294 786.226C191.643 771.531 191.547 771.626 195.556 771.626C201.855 771.626 204.146 767.809 215.98 737.751C223.997 717.522 246.808 670.764 253.966 660.172C256.925 655.783 260.647 648.626 262.365 644.237C263.987 639.752 265.514 636.126 265.705 636.126C265.896 636.126 269.523 639.656 273.913 644.046C278.303 648.435 287.657 656.451 294.719 661.89C319.725 681.07 326.12 686.986 334.137 698.342C341.676 708.933 346.735 713.895 352.175 716.281C356.852 718.285 357.711 718.38 363.723 717.331C372.504 715.899 375.081 715.995 382.907 718.094C386.629 719.144 394.074 720.384 399.418 720.957C406.481 721.625 410.012 722.388 411.826 723.724C415.643 726.396 418.507 727.064 419.079 725.537C420.129 722.77 410.585 707.407 403.522 700.25C398.75 695.479 396.078 695.193 386.343 698.151C381.094 699.773 379.376 699.868 375.176 699.009C372.408 698.437 369.832 697.483 369.45 696.815C368.973 696.147 366.3 694.525 363.437 693.189C360.478 691.853 357.52 690.231 356.756 689.467C355.897 688.704 352.748 685.841 349.598 682.978C346.448 680.116 336.618 670.669 327.647 661.89C318.771 653.206 308.081 643.092 303.977 639.465C294.338 630.973 294.051 630.4 297.01 625.915C299.969 621.144 308.94 610.552 323.065 594.903C350.075 564.845 360.287 552.535 363.437 546.428C365.346 542.706 366.873 538.317 369.068 530.492C369.927 527.248 370.691 526.294 372.79 525.817C374.222 525.53 376.703 524.862 378.23 524.481C382.716 523.145 403.713 519.9 417.648 518.278C432.346 516.656 467.563 516.37 478.157 517.801C496.959 520.377 524.351 520.377 540.289 517.801C549.07 516.37 561.382 512.839 566.727 510.263C569.017 509.213 571.594 508.259 572.453 508.259C574.267 508.259 585.147 519.328 590.014 526.103C599.654 539.558 613.97 546.619 643.557 552.249C651.86 553.871 655.869 554.157 663.027 553.68L671.903 553.012L679.252 557.688C691.087 565.322 700.249 570.57 710.175 575.341C725.064 582.593 726.4 585.742 728.022 618.472C729.358 647.386 730.408 678.971 730.122 683.36C729.645 690.994 726.782 702.922 722.868 714.468C718.669 726.682 718.955 726.3 703.017 747.771C700.058 751.778 696.049 756.168 694.236 757.408C687.269 762.084 688.987 764.47 700.249 765.996C709.602 767.237 717.715 766.092 723.823 762.561C729.74 759.126 730.217 758.076 730.886 747.771C731.458 739.66 731.935 737.942 734.321 734.316C736.039 731.835 738.234 729.831 740.143 729.259C747.779 726.682 748.828 721.148 749.974 677.635C751.501 621.335 754.173 590.895 758.468 580.112L760.281 575.532L760.759 578.872C761.14 580.685 761.522 584.311 761.808 586.983C766.39 630.591 766.39 629.541 765.244 640.897C764.004 652.443 761.904 662.749 758.468 673.913L756.368 680.688L759.041 686.318C760.568 689.372 762.763 693.284 763.908 694.906C766.294 698.151 769.062 706.357 770.971 715.804C772.975 725.537 773.166 728.781 771.925 734.125C769.444 744.049 773.548 746.626 782.424 740.614C795.117 732.121 801.894 718.571 797.026 711.51C796.167 710.174 793.4 706.93 791.013 704.258C788.532 701.681 785.86 698.246 785.096 696.624C783.092 692.807 782.137 683.837 783.569 682.215C784.333 681.261 784.714 668.665 784.905 637.748C785.001 613.988 785.478 585.551 786.051 574.578C786.623 563.509 787.196 541.466 787.387 525.435L787.673 496.331L784.81 492.037C782.519 488.602 780.801 487.361 776.793 485.93L771.734 484.117L750.165 487.552C724.3 491.655 716.665 492.609 698.436 493.945C680.874 495.186 672.857 495.377 672.094 494.709C670.662 493.182 679.443 463.505 685.074 450.528C687.364 445.28 694.618 422.951 696.049 416.653C699.294 402.148 698.913 382.3 695 368.082C694.141 365.124 693.186 361.403 692.709 359.876C692.327 358.254 691.087 354.341 689.941 351.097C688.891 347.853 687.937 344.799 687.937 344.322C687.937 343.845 693.186 343.654 699.676 343.94C713.229 344.417 717.047 343.463 732.317 335.734C739.189 332.203 742.529 329.722 749.306 322.947C755.223 316.935 757.609 313.882 757.609 312.164C757.609 310.924 759.041 307.584 760.854 304.721C766.103 296.61 771.448 283.633 770.398 281.915C770.016 281.343 769.635 276.19 769.635 270.56C769.539 261.208 769.348 260.063 767.439 258.25C765.722 256.724 765.244 255.197 765.244 251.571C765.244 244.223 764.767 243.651 760.568 245.75C755.7 248.326 745.011 259.205 739.189 267.793C732.222 277.907 732.603 277.239 724.396 293.557C720.292 301.763 715.615 310.351 713.897 312.737C703.112 328.482 681.829 334.493 660.259 328.005C654.533 326.192 625.996 314.645 617.788 310.733C615.402 309.588 599.749 304.053 595.836 303.004C578.466 298.328 567.299 296.42 557.66 296.42C551.074 296.42 523.969 299.95 506.122 303.099C502.972 303.672 497.818 304.435 494.669 305.008C491.519 305.485 479.971 307.393 468.9 309.302C436.354 314.932 437.404 314.836 409.726 314.168C379.471 313.5 355.038 312.164 335.759 310.065C328.124 309.302 315.048 308.252 306.65 307.87C298.251 307.393 289.661 306.63 287.561 305.962C260.17 298.042 244.422 287.068 222.566 260.922C213.213 249.662 208.631 241.933 205.959 233.059C204.814 229.337 201.951 221.035 199.565 214.642C194.697 201.474 194.697 199.374 199.755 196.225C204.909 193.076 210.731 180.48 210.731 172.465C210.731 160.537 206.914 157.674 191.738 158.247C182.576 158.533 181.049 158.915 175.513 161.682L169.405 164.831L160.529 163.686C155.566 163.113 151.558 162.255 151.558 161.873C151.558 161.396 152.703 159.678 154.039 158.056C156.902 154.621 164.633 150.613 173.032 148.037C182.958 145.079 198.324 135.918 198.324 132.955C198.324 132.478 199.183 130.951 200.137 129.52C201.187 128.088 203.382 124.367 205.1 121.313C206.818 118.164 209.872 113.68 211.972 111.294C213.976 108.908 217.794 102.897 220.466 97.9348C223.043 92.9728 226.67 86.484 228.483 83.6213C232.301 77.6097 233.351 74.3653 231.919 72.9339C231.346 72.3614 229.819 73.7927 227.338 77.3234C223.616 82.6671 221.611 84.1939 222.566 80.9495C222.948 79.9952 223.807 73.2202 224.57 65.8726C225.334 58.6205 226.288 51.3683 226.574 49.937C227.147 47.5514 226.956 47.2651 225.429 47.5514C222.852 48.0285 219.512 57.0937 218.271 66.5406C216.362 81.7129 207.868 103.946 202.046 108.813C198.992 111.485 198.801 111.485 198.515 109.576C198.324 108.527 199.66 104.519 201.473 100.607C203.287 96.7897 205.673 90.8735 206.723 87.4382C210.158 77.0371 215.408 46.2155 215.98 33.6196C216.267 27.2263 216.839 20.5467 217.317 18.7336C218.366 14.3442 222.089 5.18355 223.234 3.94305C224.379 2.79797 224.379 0.603242 223.234 0.603242C222.757 0.603242 221.134 2.03459 219.703 3.65678ZM750.928 532.115C751.883 532.687 753.314 535.359 754.173 538.222C756.655 546.714 756.464 547.001 750.737 543.756C747.969 542.134 743.961 539.939 741.861 538.794C736.421 535.836 735.371 534.882 736.517 533.737C738.616 531.637 748.065 530.588 750.928 532.115Z" fill="#B7AC92"/>
<path fill-rule="evenodd" clip-rule="evenodd" d="M270.378 302.806L253.808 373.366C330.052 388.926 493.745 410.711 538.559 373.366C583.372 336.022 594.575 314.238 594.575 308.014L593.939 305.045C580.242 301.628 570.712 300.198 562.327 300.198C555.681 300.198 528.328 303.761 510.317 306.938C508.728 307.227 506.633 307.564 504.538 307.901C502.443 308.238 500.349 308.575 498.759 308.864C495.581 309.346 483.927 311.272 472.754 313.198C454.95 316.278 447.109 317.66 439.211 318.172C432.54 318.605 425.829 318.417 413.039 318.109C382.507 317.435 357.851 316.087 338.395 313.968C330.69 313.198 317.495 312.138 309.019 311.753C300.543 311.272 291.875 310.501 289.756 309.827C282.616 307.763 276.259 305.492 270.378 302.806Z" fill="#E28532"/>
<path d="M253.808 373.366L252.347 373.023C252.255 373.418 252.326 373.833 252.544 374.175C252.763 374.516 253.111 374.755 253.508 374.836L253.808 373.366ZM270.378 302.806L271.001 301.441C270.593 301.255 270.122 301.261 269.718 301.459C269.314 301.657 269.021 302.025 268.918 302.463L270.378 302.806ZM538.559 373.366L539.519 374.519L539.519 374.519L538.559 373.366ZM594.575 308.014H596.075C596.075 307.908 596.064 307.803 596.042 307.699L594.575 308.014ZM593.939 305.045L595.406 304.731C595.286 304.171 594.858 303.728 594.302 303.59L593.939 305.045ZM510.317 306.938L510.057 305.461L510.049 305.463L510.317 306.938ZM504.538 307.901L504.776 309.382L504.776 309.382L504.538 307.901ZM498.759 308.864L498.984 310.347C498.999 310.345 499.013 310.343 499.028 310.34L498.759 308.864ZM472.754 313.198L472.5 311.719L472.499 311.72L472.754 313.198ZM439.211 318.172L439.308 319.669L439.308 319.669L439.211 318.172ZM413.039 318.109L413.075 316.609L413.072 316.609L413.039 318.109ZM338.395 313.968L338.557 312.477L338.544 312.475L338.395 313.968ZM309.019 311.753L308.934 313.251C308.94 313.251 308.945 313.251 308.951 313.252L309.019 311.753ZM289.756 309.827L290.211 308.398C290.198 308.394 290.185 308.39 290.173 308.386L289.756 309.827ZM256.097 370.181L256.439 368.721L253.519 368.035L253.176 369.495L256.097 370.181ZM254.833 362.439L254.49 363.9L257.411 364.585L257.754 363.125L254.833 362.439ZM259.411 356.069L259.754 354.609L256.833 353.923L256.49 355.383L259.411 356.069ZM258.147 348.327L257.804 349.787L260.725 350.473L261.068 349.013L258.147 348.327ZM262.725 341.957L263.068 340.497L260.147 339.811L259.804 341.271L262.725 341.957ZM261.461 334.215L261.118 335.675L264.039 336.361L264.382 334.901L261.461 334.215ZM266.039 327.845L266.382 326.385L263.461 325.699L263.118 327.159L266.039 327.845ZM264.775 320.103L264.432 321.563L267.353 322.249L267.696 320.789L264.775 320.103ZM269.353 313.733L269.696 312.273L266.775 311.587L266.432 313.047L269.353 313.733ZM268.089 305.991L267.746 307.451L270.667 308.137L271.01 306.677L268.089 305.991ZM274.555 306.231L275.946 306.793L277.069 304.011L275.678 303.449L274.555 306.231ZM285.279 306.898L283.851 306.44L282.936 309.298L284.364 309.755L285.279 306.898ZM294.363 312.095L295.853 312.264L296.193 309.284L294.702 309.114L294.363 312.095ZM304.288 309.952L302.792 309.848L302.583 312.84L304.08 312.944L304.288 309.952ZM312.609 313.442L314.106 313.528L314.278 310.533L312.781 310.447L312.609 313.442ZM320.154 310.927L318.657 310.82L318.444 313.812L319.94 313.919L320.154 310.927ZM327.27 314.48L328.765 314.601L329.008 311.611L327.513 311.49L327.27 314.48ZM334.869 312.124L333.375 311.987L333.101 314.974L334.595 315.112L334.869 312.124ZM341.964 315.85L343.456 316L343.756 313.015L342.264 312.865L341.964 315.85ZM349.686 313.556L348.192 313.427L347.934 316.416L349.429 316.545L349.686 313.556ZM356.899 317.142L358.395 317.252L358.617 314.261L357.121 314.15L356.899 317.142ZM364.568 314.662L363.071 314.566L362.88 317.56L364.377 317.656L364.568 314.662ZM371.855 318.098L373.353 318.181L373.517 315.185L372.019 315.103L371.855 318.098ZM379.475 315.482L377.977 315.412L377.835 318.409L379.334 318.479L379.475 315.482ZM386.815 318.806L388.313 318.867L388.434 315.869L386.936 315.808L386.815 318.806ZM394.4 316.087L392.901 316.036L392.798 319.034L394.297 319.085L394.4 316.087ZM401.782 319.322L403.281 319.366L403.368 316.367L401.869 316.324L401.782 319.322ZM409.334 316.522L407.834 316.486L407.761 319.485L409.261 319.522L409.334 316.522ZM416.277 319.687L417.776 319.724L417.848 316.724L416.349 316.688L416.277 319.687ZM422.887 316.836L421.387 316.806L421.327 319.806L422.827 319.836L422.887 316.836ZM429.394 319.924L430.894 319.93L430.906 316.93L429.406 316.924L429.394 319.924ZM435.889 316.837L434.39 316.89L434.498 319.888L435.997 319.835L435.889 316.837ZM443.589 319.308L445.081 319.154L444.773 316.17L443.281 316.324L443.589 319.308ZM451.616 315.23L450.133 315.456L450.584 318.421L452.067 318.196L451.616 315.23ZM460.462 316.834L461.941 316.584L461.441 313.626L459.962 313.876L460.462 316.834ZM468.314 312.443L466.836 312.699L467.347 315.655L468.825 315.4L468.314 312.443ZM476.255 314.118L477.734 313.866L477.228 310.909L475.75 311.161L476.255 314.118ZM482.252 310.057L480.773 310.307L481.272 313.265L482.751 313.015L482.252 310.057ZM489.249 311.928L490.729 311.682L490.237 308.722L488.757 308.968L489.249 311.928ZM495.266 307.899L493.786 308.139L494.265 311.1L495.745 310.86L495.266 307.899ZM500.454 310.09L501.932 309.838L501.429 306.881L499.95 307.133L500.454 310.09ZM502.853 306.654L501.372 306.893L501.851 309.855L503.332 309.615L502.853 306.654ZM506.224 309.149L507.705 308.909L507.226 305.948L505.745 306.187L506.224 309.149ZM508.623 305.713L507.144 305.964L507.648 308.922L509.126 308.67L508.623 305.713ZM513.796 307.86L515.275 307.61L514.775 304.652L513.296 304.902L513.796 307.86ZM519.786 303.845L518.305 304.078L518.771 307.042L520.253 306.808L519.786 303.845ZM526.725 305.82L528.209 305.6L527.769 302.632L526.285 302.852L526.725 305.82ZM532.79 301.915L531.305 302.123L531.721 305.094L533.206 304.886L532.79 301.915ZM539.696 304.005L541.184 303.81L540.793 300.835L539.306 301.03L539.696 304.005ZM545.824 300.206L544.335 300.386L544.696 303.365L546.185 303.184L545.824 300.206ZM552.68 302.442L554.172 302.283L553.855 299.3L552.364 299.459L552.68 302.442ZM558.95 298.851L557.454 298.958L557.669 301.951L559.165 301.843L558.95 298.851ZM566.255 301.801L567.753 301.879L567.909 298.883L566.411 298.805L566.255 301.801ZM574.511 299.588L573.025 299.385L572.618 302.357L574.105 302.561L574.511 299.588ZM581.923 303.876L583.395 304.164L583.971 301.22L582.499 300.932L581.923 303.876ZM590.386 302.64L588.926 302.297L588.24 305.218L589.7 305.561L590.386 302.64ZM592.631 306.102L592.946 307.568L595.879 306.94L595.565 305.473L592.631 306.102ZM595.883 306.957L595.568 305.491L592.635 306.119L592.949 307.586L595.883 306.957ZM592.432 311.067L591.952 312.488L594.794 313.449L595.274 312.028L592.432 311.067ZM592.075 318.867L592.817 317.563L590.21 316.079L589.467 317.383L592.075 318.867ZM585.644 323.394L584.787 324.625L587.25 326.338L588.107 325.107L585.644 323.394ZM583.721 331.012L584.648 329.833L582.291 327.978L581.363 329.157L583.721 331.012ZM576.772 334.727L575.794 335.864L578.068 337.82L579.046 336.683L576.772 334.727ZM574.182 342.137L575.199 341.035L572.994 339.001L571.977 340.104L574.182 342.137ZM567.001 345.343L565.953 346.416L568.1 348.512L569.147 347.439L567.001 345.343ZM563.973 352.607L565.047 351.56L562.952 349.412L561.879 350.46L563.973 352.607ZM556.643 355.458L555.548 356.482L557.597 358.674L558.692 357.649L556.643 355.458ZM553.324 362.574L554.439 361.57L552.431 359.342L551.316 360.346L553.324 362.574ZM545.88 365.16L544.749 366.146L546.72 368.408L547.851 367.422L545.88 365.16ZM542.329 372.161L543.474 371.192L541.537 368.901L540.392 369.869L542.329 372.161ZM534.985 374.225L533.763 375.095L535.503 377.539L536.725 376.669L534.985 374.225ZM530.689 380.4L532.009 379.689L530.586 377.047L529.266 377.759L530.689 380.4ZM523.153 380.671L521.771 381.255L522.938 384.019L524.32 383.435L523.153 380.671ZM517.758 385.915L519.179 385.435L518.218 382.593L516.797 383.074L517.758 385.915ZM510.284 385.06L508.837 385.457L509.632 388.35L511.078 387.953L510.284 385.06ZM504.321 389.633L505.785 389.304L505.128 386.377L503.664 386.706L504.321 389.633ZM496.966 388.068L495.491 388.339L496.032 391.29L497.508 391.019L496.966 388.068ZM490.65 392.158L492.133 391.936L491.689 388.969L490.206 389.191L490.65 392.158ZM483.395 390.109L481.906 390.288L482.265 393.267L483.754 393.087L483.395 390.109ZM476.828 393.834L478.321 393.691L478.036 390.705L476.543 390.847L476.828 393.834ZM469.714 391.424L468.218 391.534L468.438 394.526L469.934 394.415L469.714 391.424ZM463.028 394.857L464.525 394.775L464.363 391.78L462.865 391.861L463.028 394.857ZM455.985 392.175L454.486 392.23L454.597 395.228L456.096 395.173L455.985 392.175ZM449.15 395.375L450.65 395.342L450.586 392.343L449.086 392.375L449.15 395.375ZM442.227 392.473L440.727 392.483L440.748 395.483L442.248 395.472L442.227 392.473ZM435.323 395.477L436.823 395.485L436.841 392.486L435.341 392.477L435.323 395.477ZM428.437 392.395L426.938 392.368L426.884 395.368L428.384 395.394L428.437 392.395ZM421.48 395.233L422.979 395.276L423.066 392.277L421.566 392.234L421.48 395.233ZM414.681 391.999L413.182 391.94L413.065 394.938L414.564 394.997L414.681 391.999ZM407.64 394.691L409.138 394.764L409.285 391.768L407.787 391.695L407.64 394.691ZM400.915 391.327L399.418 391.24L399.244 394.235L400.741 394.322L400.915 391.327ZM393.836 393.891L395.332 393.991L395.532 390.998L394.035 390.898L393.836 393.891ZM387.157 390.412L385.661 390.3L385.438 393.291L386.933 393.403L387.157 390.412ZM380.041 392.861L381.536 392.984L381.782 389.995L380.287 389.871L380.041 392.861ZM373.418 389.279L371.924 389.145L371.655 392.132L373.149 392.267L373.418 389.279ZM366.267 391.623L367.76 391.768L368.05 388.782L366.557 388.637L366.267 391.623ZM359.692 387.948L358.2 387.793L357.89 390.777L359.382 390.932L359.692 387.948ZM352.508 390.195L353.999 390.36L354.329 387.378L352.838 387.213L352.508 390.195ZM345.992 386.435L344.502 386.261L344.154 389.24L345.644 389.415L345.992 386.435ZM338.769 388.589L340.258 388.773L340.624 385.795L339.135 385.612L338.769 388.589ZM332.299 384.749L330.811 384.557L330.427 387.532L331.914 387.724L332.299 384.749ZM325.068 386.819L326.555 387.02L326.957 384.047L325.47 383.846L325.068 386.819ZM318.624 382.899L317.138 382.689L316.719 385.66L318.204 385.87L318.624 382.899ZM311.365 384.884L312.849 385.102L313.286 382.134L311.802 381.916L311.365 384.884ZM305.006 380.896L303.524 380.669L303.07 383.634L304.552 383.861L305.006 380.896ZM297.696 382.791L299.177 383.027L299.648 380.064L298.167 379.828L297.696 382.791ZM291.352 378.724L289.872 378.48L289.383 381.44L290.863 381.684L291.352 378.724ZM284.059 380.54L285.537 380.793L286.043 377.836L284.565 377.583L284.059 380.54ZM277.8 376.403L276.323 376.14L275.799 379.094L277.275 379.356L277.8 376.403ZM270.444 378.119L271.919 378.392L272.463 375.441L270.988 375.169L270.444 378.119ZM264.197 373.892L262.724 373.609L262.159 376.556L263.632 376.838L264.197 373.892ZM256.837 375.508L258.308 375.802L258.896 372.86L257.425 372.566L256.837 375.508ZM255.268 373.709L256.097 370.181L253.176 369.495L252.347 373.023L255.268 373.709ZM257.754 363.125L259.411 356.069L256.49 355.383L254.833 362.439L257.754 363.125ZM261.068 349.013L262.725 341.957L259.804 341.271L258.147 348.327L261.068 349.013ZM264.382 334.901L266.039 327.845L263.118 327.159L261.461 334.215L264.382 334.901ZM267.696 320.789L269.353 313.733L266.432 313.047L264.775 320.103L267.696 320.789ZM271.01 306.677L271.838 303.149L268.918 302.463L268.089 305.991L271.01 306.677ZM269.755 304.17C271.321 304.886 272.919 305.571 274.555 306.231L275.678 303.449C274.082 302.805 272.525 302.137 271.001 301.441L269.755 304.17ZM284.364 309.755C285.982 310.273 287.639 310.777 289.339 311.268L290.173 308.386C288.498 307.902 286.868 307.407 285.279 306.898L284.364 309.755ZM289.301 311.257C290.259 311.561 292.122 311.839 294.363 312.095L294.702 309.114C292.396 308.851 290.838 308.598 290.211 308.398L289.301 311.257ZM304.08 312.944C305.674 313.055 307.307 313.158 308.934 313.251L309.104 310.256C307.49 310.164 305.869 310.062 304.288 309.952L304.08 312.944ZM308.951 313.252C310.091 313.303 311.319 313.368 312.609 313.442L312.781 310.447C311.481 310.372 310.241 310.307 309.087 310.255L308.951 313.252ZM319.94 313.919C322.378 314.093 324.863 314.284 327.27 314.48L327.513 311.49C325.097 311.293 322.602 311.102 320.154 310.927L319.94 313.919ZM334.595 315.112C335.907 315.232 337.134 315.349 338.246 315.461L338.544 312.475C337.423 312.363 336.188 312.245 334.869 312.124L334.595 315.112ZM338.233 315.459C339.456 315.592 340.7 315.723 341.964 315.85L342.264 312.865C341.008 312.738 339.772 312.609 338.557 312.477L338.233 315.459ZM349.429 316.545C351.851 316.753 354.341 316.952 356.899 317.142L357.121 314.15C354.574 313.961 352.096 313.763 349.686 313.556L349.429 316.545ZM364.377 317.656C366.812 317.811 369.305 317.958 371.855 318.098L372.019 315.103C369.478 314.963 366.994 314.816 364.568 314.662L364.377 317.656ZM379.334 318.479C381.778 318.594 384.271 318.703 386.815 318.806L386.936 315.808C384.399 315.706 381.912 315.597 379.475 315.482L379.334 318.479ZM394.297 319.085C396.748 319.17 399.243 319.249 401.782 319.322L401.869 316.324C399.335 316.25 396.846 316.171 394.4 316.087L394.297 319.085ZM409.261 319.522C410.499 319.552 411.748 319.581 413.006 319.608L413.072 316.609C411.816 316.581 410.57 316.553 409.334 316.522L409.261 319.522ZM413.003 319.608C414.14 319.636 415.231 319.662 416.277 319.687L416.349 316.688C415.303 316.663 414.214 316.637 413.075 316.609L413.003 319.608ZM422.827 319.836C425.246 319.884 427.405 319.916 429.394 319.924L429.406 316.924C427.44 316.916 425.298 316.885 422.887 316.836L422.827 319.836ZM435.997 319.835C437.118 319.794 438.213 319.74 439.308 319.669L439.114 316.675C438.049 316.744 436.983 316.797 435.889 316.837L435.997 319.835ZM439.308 319.669C440.719 319.577 442.128 319.458 443.589 319.308L443.281 316.324C441.856 316.471 440.486 316.586 439.114 316.675L439.308 319.669ZM452.067 318.196C454.542 317.819 457.294 317.369 460.462 316.834L459.962 313.876C456.802 314.409 454.067 314.857 451.616 315.23L452.067 318.196ZM468.825 315.4C470.157 315.169 471.55 314.928 473.01 314.676L472.499 311.72C471.038 311.972 469.645 312.213 468.314 312.443L468.825 315.4ZM473.009 314.676C474.089 314.49 475.174 314.303 476.255 314.118L475.75 311.161C474.667 311.347 473.581 311.533 472.5 311.719L473.009 314.676ZM482.751 313.015C485.046 312.628 487.242 312.261 489.249 311.928L488.757 308.968C486.748 309.302 484.55 309.67 482.252 310.057L482.751 313.015ZM495.745 310.86C497.179 310.629 498.289 310.453 498.984 310.347L498.535 307.381C497.824 307.489 496.701 307.667 495.266 307.899L495.745 310.86ZM499.028 310.34C499.466 310.26 499.944 310.177 500.454 310.09L499.95 307.133C499.433 307.221 498.943 307.306 498.491 307.388L499.028 310.34ZM503.332 309.615C503.809 309.538 504.292 309.46 504.776 309.382L504.3 306.42C503.816 306.498 503.331 306.576 502.853 306.654L503.332 309.615ZM504.776 309.382C505.26 309.304 505.745 309.226 506.224 309.149L505.745 306.187C505.268 306.265 504.784 306.342 504.3 306.42L504.776 309.382ZM509.126 308.67C509.643 308.582 510.133 308.496 510.585 308.414L510.049 305.463C509.611 305.542 509.132 305.626 508.623 305.713L509.126 308.67ZM510.578 308.416C511.621 308.232 512.695 308.046 513.796 307.86L513.296 304.902C512.189 305.089 511.107 305.276 510.057 305.461L510.578 308.416ZM520.253 306.808C522.374 306.474 524.543 306.143 526.725 305.82L526.285 302.852C524.095 303.177 521.917 303.509 519.786 303.845L520.253 306.808ZM533.206 304.886C535.404 304.578 537.579 304.283 539.696 304.005L539.306 301.03C537.18 301.31 534.996 301.606 532.79 301.915L533.206 304.886ZM546.185 303.184C548.506 302.903 550.691 302.653 552.68 302.442L552.364 299.459C550.357 299.672 548.157 299.923 545.824 300.206L546.185 303.184ZM559.165 301.843C560.51 301.747 561.576 301.698 562.327 301.698V298.698C561.469 298.698 560.32 298.753 558.95 298.851L559.165 301.843ZM562.327 301.698C563.604 301.698 564.91 301.731 566.255 301.801L566.411 298.805C565.015 298.733 563.658 298.698 562.327 298.698V301.698ZM574.105 302.561C576.54 302.894 579.131 303.329 581.923 303.876L582.499 300.932C579.659 300.376 577.011 299.931 574.511 299.588L574.105 302.561ZM589.7 305.561C590.954 305.855 592.245 306.169 593.576 306.501L594.302 303.59C592.958 303.255 591.654 302.938 590.386 302.64L589.7 305.561ZM592.472 305.36L592.631 306.102L595.565 305.473L595.406 304.731L592.472 305.36ZM592.949 307.586L593.108 308.328L596.042 307.699L595.883 306.957L592.949 307.586ZM593.075 308.014C593.075 308.66 592.906 309.666 592.432 311.067L595.274 312.028C595.804 310.462 596.075 309.111 596.075 308.014H593.075ZM589.467 317.383C588.45 319.17 587.187 321.174 585.644 323.394L588.107 325.107C589.695 322.823 591.007 320.742 592.075 318.867L589.467 317.383ZM581.363 329.157C579.981 330.914 578.455 332.77 576.772 334.727L579.046 336.683C580.756 334.695 582.31 332.805 583.721 331.012L581.363 329.157ZM571.977 340.104C570.424 341.788 568.767 343.534 567.001 345.343L569.147 347.439C570.933 345.611 572.609 343.844 574.182 342.137L571.977 340.104ZM561.879 350.46C560.216 352.082 558.472 353.748 556.643 355.458L558.692 357.649C560.536 355.925 562.295 354.244 563.973 352.607L561.879 350.46ZM551.316 360.346C549.573 361.917 547.761 363.522 545.88 365.16L547.851 367.422C549.744 365.773 551.568 364.157 553.324 362.574L551.316 360.346ZM540.392 369.869C539.476 370.644 538.544 371.425 537.598 372.214L539.519 374.519C540.47 373.726 541.407 372.94 542.329 372.161L540.392 369.869ZM537.598 372.214C536.771 372.903 535.899 373.574 534.985 374.225L536.725 376.669C537.698 375.976 538.63 375.259 539.519 374.519L537.598 372.214ZM529.266 377.759C527.353 378.789 525.314 379.759 523.153 380.671L524.32 383.435C526.559 382.49 528.685 381.479 530.689 380.4L529.266 377.759ZM516.797 383.074C514.71 383.779 512.537 384.441 510.284 385.06L511.078 387.953C513.383 387.32 515.612 386.641 517.758 385.915L516.797 383.074ZM503.664 386.706C501.491 387.194 499.257 387.647 496.966 388.068L497.508 391.019C499.835 390.591 502.108 390.13 504.321 389.633L503.664 386.706ZM490.206 389.191C487.98 389.524 485.709 389.83 483.395 390.109L483.754 393.087C486.095 392.805 488.394 392.496 490.65 392.158L490.206 389.191ZM476.543 390.847C474.3 391.062 472.023 391.253 469.714 391.424L469.934 394.415C472.264 394.244 474.562 394.05 476.828 393.834L476.543 390.847ZM462.865 391.861C460.597 391.984 458.303 392.089 455.985 392.175L456.096 395.173C458.43 395.086 460.742 394.981 463.028 394.857L462.865 391.861ZM449.086 392.375C446.819 392.424 444.532 392.456 442.227 392.473L442.248 395.472C444.567 395.456 446.868 395.423 449.15 395.375L449.086 392.375ZM435.341 392.477C433.054 392.464 430.752 392.436 428.437 392.395L428.384 395.394C430.71 395.436 433.024 395.463 435.323 395.477L435.341 392.477ZM421.566 392.234C419.281 392.168 416.985 392.089 414.681 391.999L414.564 394.997C416.878 395.087 419.184 395.166 421.48 395.233L421.566 392.234ZM407.787 391.695C405.502 391.583 403.211 391.46 400.915 391.327L400.741 394.322C403.046 394.456 405.346 394.579 407.64 394.691L407.787 391.695ZM394.035 390.898C391.745 390.745 389.452 390.583 387.157 390.412L386.933 393.403C389.236 393.575 391.537 393.738 393.836 393.891L394.035 390.898ZM380.287 389.871C377.997 389.682 375.706 389.485 373.418 389.279L373.149 392.267C375.445 392.473 377.742 392.671 380.041 392.861L380.287 389.871ZM366.557 388.637C364.264 388.415 361.975 388.185 359.692 387.948L359.382 390.932C361.672 391.17 363.968 391.4 366.267 391.623L366.557 388.637ZM352.838 387.213C350.548 386.96 348.265 386.701 345.992 386.435L345.644 389.415C347.923 389.681 350.212 389.941 352.508 390.195L352.838 387.213ZM339.135 385.612C336.844 385.33 334.565 385.042 332.299 384.749L331.914 387.724C334.186 388.018 336.472 388.307 338.769 388.589L339.135 385.612ZM325.47 383.846C323.171 383.535 320.888 383.219 318.624 382.899L318.204 385.87C320.475 386.19 322.763 386.507 325.068 386.819L325.47 383.846ZM311.802 381.916C309.515 381.579 307.249 381.239 305.006 380.896L304.552 383.861C306.8 384.205 309.072 384.546 311.365 384.884L311.802 381.916ZM298.167 379.828C295.866 379.463 293.593 379.094 291.352 378.724L290.863 381.684C293.11 382.055 295.389 382.424 297.696 382.791L298.167 379.828ZM284.565 377.583C282.272 377.19 280.016 376.796 277.8 376.403L277.275 379.356C279.497 379.751 281.759 380.146 284.059 380.54L284.565 377.583ZM270.988 375.169C268.671 374.742 266.406 374.316 264.197 373.892L263.632 376.838C265.848 377.263 268.12 377.691 270.444 378.119L270.988 375.169ZM257.425 372.566C256.302 372.342 255.196 372.119 254.108 371.897L253.508 374.836C254.6 375.059 255.71 375.283 256.837 375.508L257.425 372.566Z" fill="#E7E0D6"/>
</svg>
