<svg width="649" height="812" viewBox="0 0 649 812" fill="none" xmlns="http://www.w3.org/2000/svg">
<path d="M179.108 2.38029C178.043 4.73696 177.815 7.39772 177.815 15.6081C177.891 24.7307 178.119 26.5552 180.02 32.1048C181.161 35.5257 184.278 42.3677 186.94 47.3091C194.771 61.6012 195.836 64.7941 196.216 74.6769C196.52 81.8229 196.368 83.5714 195.304 85.1679C193.631 87.7526 190.513 88.969 188.232 87.9047C186.711 87.2205 186.483 86.5363 186.483 83.1153C186.483 77.2616 184.202 63.1216 182.682 59.3205C182.301 58.4843 181.541 56.3557 180.857 54.6072C179.032 49.6658 176.675 44.8004 172.417 37.2742C167.55 28.5317 166.714 26.6312 166.714 24.1225C166.714 21.3097 165.649 19.8653 164.053 20.4734C162.836 20.9296 162.76 21.6898 163.14 27.3914C163.444 31.4206 164.357 35.8298 165.573 39.3268C170.44 52.7066 171.428 56.4317 171.808 63.1216C172.189 69.4314 172.037 70.1916 170.364 72.6243L168.539 75.2851L153.788 75.7412C145.652 76.0453 137.592 76.6535 135.919 77.1096C128.24 79.1622 111.816 76.7295 106.037 72.6243C102.463 70.1156 102.083 69.9636 102.083 71.1799C102.083 73.3845 107.102 77.9458 111.968 80.1505C120.56 84.1036 126.643 85.548 135.159 85.548C144.511 85.548 159.338 86.8404 162.912 87.9047C167.094 89.1971 182.377 97.1033 186.255 99.9921C190.133 102.881 193.631 108.05 194.467 111.852C194.847 113.752 194.315 115.044 191.806 118.769C189.449 122.419 187.396 124.319 182.834 127.208C173.709 132.986 161.163 139.295 160.859 138.231C159.947 135.57 157.362 133.442 155.004 133.442C150.366 133.442 140.406 141.728 133.79 151.079L130.673 155.64L128.24 153.055C122.765 147.05 113.793 128.88 112.348 120.898C111.284 115.196 108.698 113.144 107.71 117.173C106.417 122.19 108.09 132.149 112.272 144.845C117.747 161.418 118.507 165.371 117.291 171.148C116.454 175.178 115.846 176.09 111.132 180.727C108.242 183.616 105.429 185.897 104.745 185.897C103.148 185.897 100.791 177.002 99.8783 167.271C99.1179 158.985 99.0419 158.833 93.4152 147.506C86.8761 134.506 85.6595 130.097 86.8001 124.167C87.1802 121.962 87.7885 118.237 88.0927 115.957C88.777 110.483 90.7539 105.466 94.0235 101.208C95.5442 99.1559 96.9889 96.115 97.5212 93.6823C98.4336 89.6532 98.3575 77.7178 97.3691 76.8055C96.0765 75.5131 95.2401 77.7178 95.2401 82.4311C95.2401 89.121 94.1756 92.0099 90.2977 96.2671L87.1042 99.688L86.572 92.9221C86.1157 86.6123 84.2148 78.478 78.3601 57.0399C76.5352 50.502 76.0029 46.777 75.7748 39.935C75.3946 24.7307 72.8094 29.368 71.973 46.777C71.5168 56.5837 72.2772 66.9227 73.8739 73.7646C76.0029 82.8873 76.155 82.7352 69.844 76.0453C66.6505 72.7003 63.0768 68.139 61.7842 65.9344C58.9709 61.145 57.6022 60.7649 58.2105 65.0222C58.7427 69.3554 62.2404 76.3494 68.0191 84.8638C75.0145 95.0507 77.7518 102.577 77.9038 111.623C77.9799 117.705 76.8393 126.448 75.6988 128.348C75.4707 128.728 74.5583 128.348 73.6458 127.512C72.8094 126.676 69.844 124.471 67.1067 122.647C44.9042 107.442 46.577 110.179 46.729 88.1327C46.8051 76.5014 46.5009 70.4197 45.8166 68.063C44.9802 65.0222 44.6 54.1511 45.2083 49.0576C45.3604 47.8413 45.0562 47.1571 44.2199 46.929C41.8627 46.4729 39.4296 64.338 40.1899 76.8815C40.7222 87.8287 39.7337 92.466 35.5517 97.8635L32.8905 101.361L25.515 100.98C21.409 100.828 16.3146 100.068 14.1096 99.46C9.85154 98.1676 4.68109 94.2905 2.4 90.5654C1.18343 88.5889 0.955318 88.4368 0.499102 89.6532C-0.64144 92.618 5.06127 100.296 10.3838 102.957C13.9575 104.705 24.2984 107.594 27.1117 107.594C29.6209 107.594 35.3236 110.711 39.7337 114.36C51.9755 124.623 78.284 152.143 81.1734 157.769C81.8577 159.137 83.0743 164.687 83.9107 170.236C84.7471 175.71 85.7356 181.715 86.1918 183.616C87.5604 189.47 87.7125 193.043 86.648 194.411C86.0397 195.171 81.3255 197.832 76.155 200.417C70.9846 203.002 65.662 205.89 64.3694 206.879C61.7082 208.855 59.5791 212.884 56.8418 221.323C54.6368 228.013 54.4847 228.241 48.0977 235.083C45.3604 237.971 40.266 243.597 36.6923 247.55C27.3398 257.965 19.5081 266.1 13.6533 271.801C8.48289 276.667 5.51748 281.076 5.51748 283.737C5.51748 284.497 4.83316 286.929 3.99676 289.21C1.56361 295.976 3.54055 301.526 9.01514 302.894C11.3723 303.502 12.2847 304.186 12.5128 305.327C12.6649 306.391 14.3377 307.835 17.3031 309.508C21.7132 312.017 22.0934 312.093 29.2407 311.941C36.5402 311.713 36.6162 311.713 39.5056 308.976C42.395 306.239 44.0678 305.631 54.5608 304.11C56.2336 303.806 61.5561 302.286 66.3464 300.689C74.5583 297.877 75.6988 297.725 85.1273 297.496L95.2401 297.344L97.9774 300.005C101.247 303.122 102.311 305.327 104.364 313.233C108.09 327.373 108.927 330.262 110.827 336.42C111.968 339.993 113.033 343.642 113.261 344.63C113.489 345.542 113.945 346.53 114.325 346.759C114.705 346.987 115.009 347.823 115.009 348.659C115.009 349.419 115.314 350.712 115.694 351.472C116.074 352.156 118.051 356.869 120.028 361.887C124.362 372.834 135.311 394.5 139.417 400.43C140.253 401.494 140.862 402.558 140.862 402.787C140.862 403.015 142.23 405.371 143.903 407.956C145.576 410.617 147.477 413.81 148.161 415.102C148.846 416.318 151.583 420.576 154.168 424.605C156.753 428.558 160.631 435.248 162.912 439.429C165.117 443.61 168.615 449.388 170.744 452.353C175.23 458.586 175.99 461.779 177.359 478.96C178.728 497.053 181.769 505.492 189.905 513.778C192.49 516.363 195.228 519.024 196.14 519.784C197.661 520.924 199.409 525.714 201.082 532.936C203.744 544.795 204.2 546.924 206.861 562.964C211.499 590.94 212.868 609.794 211.575 627.431C210.587 640.05 210.663 641.951 212.64 654.951C214.313 666.05 214.161 679.049 212.26 691.441C210.283 704.821 209.522 709.99 208.534 719.189C206.557 736.294 204.808 745.72 203.059 748.077C201.539 750.358 197.28 761.609 196.368 765.942C195.151 772.176 194.619 773.164 188.384 781.527C185.571 785.252 182.149 790.117 180.781 792.246C179.412 794.298 176.066 797.871 173.253 800.076C170.516 802.281 168.235 804.485 168.235 805.017C168.235 806.31 169.831 807.754 171.2 807.754C171.808 807.754 173.177 808.514 174.166 809.427C175.838 811.023 176.599 811.175 183.67 810.947C193.403 810.719 199.029 809.655 202.603 807.298C205.873 805.245 207.089 801.9 208.534 791.029C209.598 782.743 210.815 777.193 211.803 775.977C212.184 775.521 213.628 775.065 215.073 775.065C220.471 775.065 223.589 766.094 225.262 745.796C226.25 734.621 227.999 719.949 229.14 713.107C229.596 710.598 230.204 706.797 230.584 704.745C230.964 702.616 231.649 697.827 232.105 694.102C233.93 680.19 236.059 669.699 237.808 665.746C240.849 659.056 243.51 642.027 243.51 628.951C243.51 617.7 246.02 602.039 250.354 586.911C250.658 585.619 251.494 582.578 252.179 580.069C252.863 577.56 253.851 574.139 254.46 572.467C254.992 570.794 256.284 566.841 257.197 563.724C258.109 560.608 259.706 555.438 260.695 552.321C261.683 549.204 262.519 545.707 262.519 544.567C262.519 542.818 262.824 542.438 264.344 542.438C265.333 542.438 266.473 542.894 266.854 543.351C267.69 544.491 272.86 559.011 281.528 585.011C284.798 594.817 288.6 605.917 289.892 609.718C291.717 614.887 292.706 619.6 293.77 628.723C295.291 642.255 296.508 648.641 298.865 655.179C300.233 658.904 302.514 667.266 305.86 680.038C307.229 685.207 308.825 692.657 310.422 700.944C311.259 705.505 312.323 710.826 312.703 712.727C314.072 719.569 314.3 727.779 313.388 738.194C312.855 744.048 312.399 751.878 312.323 755.679C312.247 761.001 311.791 763.738 310.194 768.071C309.054 771.112 308.141 774.153 308.141 774.837C308.141 777.497 302.21 787.76 297.724 792.702C295.063 795.667 292.934 798.632 292.934 799.316C292.934 800.988 294.379 802.433 296.127 802.433C296.812 802.433 297.8 803.193 298.332 804.029C299.245 805.778 300.157 805.778 310.042 804.105C322.664 801.976 326.998 797.567 329.431 784.72C329.963 781.679 330.192 777.193 329.963 774.077C329.355 766.246 330.116 761.989 332.397 760.849C334.83 759.708 335.894 757.504 337.111 751.802C337.947 747.621 337.871 746.329 336.274 738.878C334.069 728.387 333.765 726.107 330.952 702.464C328.899 685.435 327.987 673.728 327.53 660.652C327.226 652.67 326.542 643.471 325.858 640.126C325.249 636.781 324.413 632.524 324.033 630.624C323.196 625.986 323.272 606.601 324.109 594.285C325.173 580.373 326.162 566.765 327.15 554.222C327.606 548.368 328.291 537.573 328.671 530.275C329.051 522.977 329.355 516.971 329.355 516.895C330.04 516.135 390.26 512.41 419.534 511.269C436.414 510.585 445.31 509.749 455.271 507.696C466.524 505.416 466.068 505.416 473.444 509.749C481.199 514.31 491.388 522.293 495.114 526.778C498.916 531.263 519.673 551.865 532.371 563.724C547.655 578.017 556.095 588.964 558.68 597.782C559.364 600.139 560.277 602.952 560.581 604.016C560.961 605.08 561.797 607.969 562.406 610.478C566.664 627.811 566.892 630.624 565.979 654.418C564.763 683.991 564.002 691.061 561.037 700.944C558.072 710.674 556.779 715.92 556.779 718.201C556.779 720.405 551.913 729.072 548.035 733.633C544.005 738.422 541.572 742.375 541.572 744.124C541.572 744.96 539.367 747.773 536.706 750.434C531.535 755.603 531.459 756.363 536.173 757.276C537.466 757.58 538.759 758.112 538.987 758.416C539.595 759.48 550.772 759.176 554.726 757.96C560.201 756.287 564.307 753.779 565.599 751.194C566.208 749.902 567.12 745.568 567.5 741.615C568.261 733.557 569.173 729.832 571.302 725.119C572.595 722.23 572.899 721.926 574.267 722.762C576.32 724.054 578.373 722.002 580.426 716.604C581.871 712.955 582.175 709.99 582.707 695.622C583.24 680.038 584 668.482 585.673 648.869C587.65 626.594 588.638 609.414 588.714 599.987C588.714 589.8 588.79 589.572 590.387 589.572C593.657 589.572 596.774 593.069 600.728 601.127C604.606 609.033 605.594 611.542 609.016 622.641C611.145 629.483 612.133 632.828 613.046 636.705C613.35 638.15 614.643 643.319 615.935 648.109C617.152 652.898 618.368 657.839 618.672 659.132C618.977 660.348 619.509 662.629 619.813 664.073C620.193 665.518 621.638 672.055 622.93 678.517L625.44 690.301L625.744 720.177C626.048 748.381 625.972 750.434 624.451 756.135C623.615 759.404 622.93 763.205 622.93 764.574C622.93 768.451 621.41 772.936 619.281 775.445C614.49 781.147 614.795 784.948 619.965 784.948C621.638 784.948 623.843 785.48 624.907 786.164C628.329 788.445 641.407 786.24 645.209 782.819C647.186 781.147 648.783 777.269 648.783 774.381C648.783 772.1 647.642 767.539 645.361 760.317C643.764 755.071 643.916 753.171 646.578 747.241C648.935 742.071 648.935 741.919 648.479 733.253C648.25 728.463 647.718 722.61 647.262 720.329C643.612 701.628 642.092 692.049 639.582 674.108C639.202 670.915 638.518 666.202 638.138 663.693C637.757 661.184 636.921 654.875 636.237 649.629C635.552 644.384 634.716 637.922 634.336 635.185C633.652 630.472 633.119 626.594 631.294 612.758C630.838 609.414 630.002 603.56 629.47 599.835C628.785 595.502 628.557 589.572 628.861 583.718C629.317 572.087 628.709 570.11 620.801 559.163C617.608 554.754 611.145 545.327 606.355 538.257C601.564 531.111 596.166 523.433 594.417 521.152C591.452 517.199 589.779 513.55 585.597 501.387C583.544 495.381 583.544 495.457 584.76 436.768C585.749 392.6 585.749 391.991 583.24 383.325C582.023 379.296 583.164 378.916 586.129 382.413C588.106 384.617 589.475 387.658 591.528 394.196C594.873 404.915 597.306 409.781 600.044 410.921C601.184 411.377 603.921 413.81 606.203 416.394C608.56 419.055 612.97 422.78 616.772 425.213C620.345 427.494 624.223 430.382 625.44 431.523C629.774 436.084 630.914 433.879 630.838 421.184C630.762 411.149 629.317 404.687 624.983 395.716C621.41 388.494 614.795 379.296 609.928 374.887C594.949 361.431 582.251 353.372 571.834 350.484C569.401 349.875 565.447 348.811 563.09 348.203C560.733 347.519 556.855 345.846 554.574 344.478C544.689 338.624 513.362 322.584 504.694 319.011C484.089 310.496 467.893 307.607 452.762 309.812C449.948 310.192 443.561 311.028 438.543 311.713C433.525 312.397 427.366 313.233 424.856 313.689C422.347 314.069 417.025 314.905 413.071 315.514C409.117 316.198 403.11 317.186 399.765 317.87C396.419 318.478 391.781 319.315 389.5 319.695C387.219 320.075 382.048 321.139 378.094 321.975C374.14 322.812 368.97 323.876 366.689 324.332C363.876 324.94 356.956 325.016 346.007 324.712C324.337 324.18 309.662 322.888 287.231 319.619C281.833 318.783 271.492 317.794 264.42 317.414C257.273 317.034 249.821 316.35 247.768 315.97C244.347 315.362 238.644 312.017 234.386 308.14C233.322 307.151 230.204 304.414 227.467 302.058C222.524 297.801 219.939 293.923 208.458 273.702C207.089 271.193 205.264 268.076 204.58 266.86C203.82 265.567 201.082 260.322 198.421 255.076C195.684 249.831 192.414 243.749 191.122 241.545C189.829 239.34 188.764 237.363 188.764 237.211C188.764 236.983 187.548 235.007 186.103 232.726C184.658 230.445 183.442 228.393 183.442 228.165C183.442 226.492 168.615 206.727 165.193 203.914C163.444 202.393 163.14 201.785 163.901 200.873C164.433 200.265 165.649 199.581 166.714 199.352C167.778 199.124 169.831 198.592 171.276 198.136C172.721 197.756 175.154 197.072 176.599 196.692C179.108 196.008 185.647 194.107 190.665 192.739C191.958 192.358 194.163 191.75 195.608 191.294C210.663 187.113 214.389 185.669 220.243 181.487C232.561 172.593 246.552 148.57 246.552 136.33C246.552 126.144 239.481 123.331 226.022 128.196C222.448 129.489 218.875 130.705 218.038 131.009C215.225 131.845 198.421 140.36 195.151 142.64C193.403 143.857 191.654 144.845 191.426 144.845C190.133 144.845 178.348 154.5 171.048 161.57C166.486 165.979 162.38 169.704 162 169.856C161.467 170.008 161.391 169.324 161.696 167.956C161.924 166.739 162.38 164.535 162.608 163.014C163.14 159.821 162.836 160.049 177.739 150.166C196.444 137.699 201.158 132.986 204.276 123.331C206.785 115.881 207.317 110.711 207.393 95.4308C207.393 72.9284 205.112 62.5895 197.128 49.0576C192.11 40.4672 185.267 27.0873 183.442 22.2219C181.465 16.8244 180.477 9.22224 181.161 4.58491C181.921 -0.356495 180.857 -1.49682 179.108 2.38029Z" fill="#B7AC92"/>
<path fill-rule="evenodd" clip-rule="evenodd" d="M512.849 412.788C502.615 417.166 492.026 426.041 481.889 440.538C472.342 454.191 469.449 467.138 470.518 479.105C471.58 491 476.573 502.083 483.149 512.051C489.122 516.233 495.264 521.322 498.065 524.691C501.657 528.924 521.539 548.664 533.765 560.083L533.766 560.083C548.484 573.847 556.972 584.693 559.62 593.729L559.622 593.733C559.994 595.014 560.438 596.443 560.81 597.636L560.82 597.669C561.076 598.491 560.676 597.174 560.81 597.636C561.216 598.791 562.647 603.632 563.229 606.032C563.232 606.046 563.236 606.06 563.239 606.075C569.798 610.547 576.732 614.112 583.911 616.32C584.44 607.855 584.718 601.091 584.756 596.385C584.756 591.591 584.767 588.87 585.01 587.391C585.126 586.688 585.366 585.693 586.208 585.037C586.986 584.43 587.911 584.439 588.237 584.442C588.258 584.442 588.276 584.443 588.291 584.443C590.635 584.443 592.652 585.72 594.456 587.737C596.252 589.746 600.135 592.459 602.061 596.385C605.847 604.104 605.994 605.555 609.309 616.308C609.309 616.308 609.495 617.15 609.642 616.875C615.515 615.868 620.061 614.972 626.093 611.493C625.986 610.683 625.874 609.834 625.757 608.941C625.319 605.732 624.517 600.119 624.004 596.531C623.322 592.199 623.103 586.364 623.4 580.646C623.62 575.03 623.554 572.086 622.633 569.267C621.698 566.407 619.839 563.534 616.005 558.226C612.91 553.953 606.674 544.857 602.066 538.057L602.061 538.049C597.453 531.175 592.286 523.828 590.642 521.685L590.636 521.677L590.63 521.669C587.574 517.595 585.883 513.816 581.86 502.115L581.846 502.075C581.65 501.5 581.46 500.945 581.289 500.378C580.687 498.378 580.359 496.351 580.225 491.936C580.093 487.574 580.148 480.754 580.354 469.138C575.074 440.328 560.154 419.072 542.026 412.004C532.99 408.481 523.048 408.425 512.849 412.788Z" fill="#E28532"/>
<path d="M560.81 597.636C560.438 596.443 559.994 595.014 559.622 593.733L559.62 593.729C556.972 584.693 548.484 573.847 533.766 560.083L533.765 560.083C521.539 548.664 501.657 528.924 498.065 524.691C495.264 521.322 489.122 516.233 483.149 512.051C476.573 502.083 471.58 491 470.518 479.105C469.449 467.138 472.342 454.191 481.889 440.538C492.026 426.041 502.615 417.166 512.849 412.788C523.048 408.425 532.99 408.481 542.026 412.004C560.154 419.072 575.074 440.328 580.354 469.138C580.148 480.754 580.093 487.574 580.225 491.936C580.359 496.351 580.687 498.378 581.289 500.378C581.46 500.945 581.65 501.5 581.846 502.075L581.86 502.115C585.883 513.816 587.574 517.595 590.63 521.669L590.636 521.677L590.642 521.685C592.286 523.828 597.453 531.175 602.061 538.049L602.066 538.057C606.674 544.857 612.91 553.953 616.005 558.226C619.839 563.534 621.698 566.407 622.633 569.267C623.554 572.086 623.62 575.03 623.4 580.646C623.103 586.364 623.322 592.199 624.004 596.531C624.517 600.119 625.319 605.732 625.757 608.941C625.874 609.834 625.986 610.683 626.093 611.493C620.061 614.972 615.515 615.868 609.642 616.875C609.495 617.15 609.309 616.308 609.309 616.308C605.994 605.555 605.847 604.104 602.061 596.385C600.135 592.459 596.252 589.746 594.456 587.737C592.652 585.72 590.635 584.443 588.291 584.443C588.276 584.443 588.258 584.442 588.237 584.442C587.911 584.439 586.986 584.43 586.208 585.037C585.366 585.693 585.126 586.688 585.01 587.391C584.767 588.87 584.756 591.591 584.756 596.385C584.718 601.091 584.44 607.855 583.911 616.32C576.732 614.112 569.798 610.547 563.239 606.075C563.236 606.06 563.232 606.046 563.229 606.032C562.647 603.632 561.216 598.791 560.81 597.636ZM560.81 597.636L560.82 597.669C561.076 598.491 560.676 597.174 560.81 597.636Z" stroke="#E7E0D6" stroke-width="3" stroke-linecap="round" stroke-linejoin="round" stroke-dasharray="3 7"/>
</svg>
