<svg width="508" height="827" viewBox="0 0 508 827" fill="none" xmlns="http://www.w3.org/2000/svg">
<path d="M260.37 5.54614C259.004 11.1664 256.595 19.1151 255.15 22.8083C254.748 23.6915 254.026 25.4579 253.544 26.7425C251.777 31.1584 250.251 40.2311 250.251 46.5739C250.251 52.4351 250.653 55.2452 252.821 63.5952C253.463 66.1645 253.223 67.6097 251.697 71.865C250.733 74.6751 249.609 77.0035 249.368 77.0035C246.718 77.0035 245.995 51.7927 248.244 38.0633C250.733 22.8083 251.054 20.3997 251.536 12.9327C251.938 7.63367 251.777 5.54614 251.135 5.54614C250.653 5.54614 250.251 6.26874 250.251 7.15192C250.251 10.1226 246.477 23.7718 243.425 32.0416C242.703 34.0488 241.498 40.8734 240.856 47.2965C239.089 64.639 240.775 82.704 245.835 98.6816C250.492 113.696 258.523 124.374 268.802 129.352C279.482 134.571 302.048 140.833 323.328 144.446C342.2 147.738 350.873 151.03 358.662 157.935L362.196 161.066L359.867 162.271C356.173 164.198 349.588 165.322 342.682 165.322C337.221 165.322 335.615 164.92 330.475 162.592C312.808 154.563 293.455 150.87 268.4 150.87C251.054 150.87 239.25 153.198 234.913 157.453C232.504 159.862 232.424 160.183 232.745 165.643C233.146 173.19 235.877 178.971 241.819 184.832C247.842 190.854 252.5 193.021 265.911 195.831C270.327 196.715 275.547 197.919 277.555 198.401C283.096 199.685 305.179 200.167 311.925 199.123C318.59 198.08 327.343 195.269 334.972 191.737C342.28 188.365 342.842 188.605 343.565 195.43C343.886 198.642 343.806 202.415 343.324 204.262C342.521 207.313 341.638 211.167 340.192 217.51C339.871 219.035 338.425 226.1 337.06 233.166C333.447 251.07 332.724 253.319 327.183 261.829C322.124 269.617 314.655 284.471 309.436 297.076C308.793 298.682 306.866 301.01 305.26 302.295C303.654 303.58 300.682 305.908 298.675 307.514C295.222 310.404 294.981 310.404 285.746 310.966C272.174 311.769 261.253 312.732 253.463 313.857C243.827 315.302 225.036 315.141 214.516 313.616C207.529 312.572 204.317 311.689 199.258 309.2C176.05 297.879 163.041 294.587 141.037 294.587C128.349 294.587 119.837 295.711 112.529 298.2C104.418 301.01 91.891 308.397 84.9045 314.579C81.7726 317.309 80.4075 316.667 75.9907 310.565C71.9755 305.025 71.8149 304.623 69.8876 293.945C66.6754 275.478 65.1496 270.26 60.8935 263.435C59.6086 261.347 57.0389 256.53 55.1116 252.596C53.1843 248.742 51.257 245.611 50.7751 245.611C49.6509 245.611 44.672 253.64 42.7447 258.457C40.7371 263.435 39.131 270.26 39.0507 274.033C39.0507 275.719 38.328 278.369 37.3643 279.894C35.8385 282.383 35.6779 283.427 36.0794 288.806C36.8022 298.441 38.0067 300.448 54.6297 319.396C61.3753 327.265 65.8724 334.009 65.0693 335.213C64.6678 335.775 62.1784 339.388 59.5283 343.242C54.6297 350.308 54.3085 350.95 50.1327 359.059C47.322 364.519 47.0008 366.366 42.2629 408.357C41.8613 412.291 40.7371 425.137 39.8537 437.1C37.7658 465.683 36.24 477.566 34.2324 480.457C33.9112 480.858 32.7066 483.748 31.4218 486.88C30.2172 489.931 28.9323 493.223 28.5308 494.106C28.2096 494.989 27.3263 497.478 26.6035 499.726C25.2383 503.901 21.2231 509.682 16.0033 514.901L12.9518 517.952V534.893C12.9518 551.272 12.6305 557.213 10.9442 575.599C6.3668 623.692 3.55615 649.305 1.62884 660.224C0.022755 668.976 0.183364 678.128 2.11067 685.917C3.87737 693.464 4.27889 698.763 3.39554 704.544C2.6728 709.2 4.35919 716.266 6.92893 719.558C10.8638 724.536 24.1141 727.025 27.4066 723.331C28.2096 722.448 29.8157 721.725 31.0203 721.725C33.9915 721.725 34.7946 719.558 32.6263 716.908C27.2459 710.164 22.1868 694.267 22.1868 683.829C22.1868 680.858 21.464 675.318 20.5807 671.545C18.7337 663.757 18.5731 657.896 19.7776 645.049C20.2595 640.232 21.0625 632.042 21.464 626.984C22.508 615.583 25.3186 595.912 27.8081 582.825C29.3339 574.716 30.7793 569.818 33.2688 564.359C34.7143 560.987 35.9991 556.25 38.328 545.491C39.2916 540.754 39.4522 540.513 52.863 527.105C60.3314 519.638 66.5148 513.696 66.6754 513.857C67.1572 514.419 68.683 548.863 68.9239 563.556C69.0042 571.264 68.8436 586.599 68.5224 597.598C67.7997 619.517 68.2012 617.912 62.0177 627.707C60.492 630.035 59.9298 632.042 59.9298 634.933C59.9298 642.079 66.033 655.969 69.6467 657.093C71.8952 657.815 74.3846 656.772 74.3846 655.085C74.3846 654.283 74.7861 653.319 75.1877 653.078C75.6695 652.837 75.9907 653.078 75.9907 653.721C75.9907 654.363 76.5528 655.326 77.1953 655.888C78.8817 657.253 81.0499 655.246 82.2545 651.232C83.3787 647.378 84.7439 635.254 85.2257 624.656C85.4666 620.079 85.8682 615.904 86.2697 615.423C89 611.729 89.4819 599.365 87.3136 588.847C85.1454 578.49 84.503 566.527 84.5833 532.243C84.5833 499.003 84.6636 496.193 86.1091 492.179C88.8394 484.551 89.5622 484.632 101.528 494.106C110.522 501.332 116.705 504.383 125.779 506.229C135.095 508.076 150.513 507.514 157.901 504.945C162.318 503.419 164.165 503.259 170.027 503.66C179.905 504.302 197.25 508.799 201.908 511.85C203.835 513.134 203.835 513.375 203.354 520.521C202.711 529.754 204.638 550.228 206.164 551.191C206.566 551.432 206.887 552.155 206.887 552.877C206.887 554.563 211.866 564.439 228.168 595.27C249.047 634.692 249.368 635.415 251.777 645.611C253.865 654.122 253.865 654.363 251.938 657.655C251.054 659.1 249.769 662.071 249.047 664.319C246.075 673.311 240.374 681.42 225.839 697.157C221.824 701.493 217.487 706.471 216.122 708.157C214.837 709.923 213.472 711.288 213.07 711.288C212.669 711.288 211.063 710.164 209.457 708.799C205.12 705.025 202.069 703.982 196.688 704.544C190.987 705.186 188.096 706.872 183.036 712.412C176.612 719.477 173.721 727.265 176.773 729.754C177.656 730.477 178.78 730.477 181.752 729.754C184.723 728.952 186.65 728.952 189.862 729.674C192.191 730.156 196.447 730.557 199.258 730.557C203.032 730.557 205.843 731.119 209.617 732.645C213.954 734.491 215.399 734.732 219.173 734.251C226.481 733.287 231.46 728.149 239.41 713.295C248.645 696.033 248.886 695.712 257.8 687.843C267.115 679.574 267.918 679.012 273.218 675.318C284.22 667.932 287.111 655.969 281.891 639.831C280.526 635.896 280.044 634.772 274.343 622.568C269.846 613.014 268.561 608.759 266.312 596.474C264.064 584.511 261.895 574.877 258.924 563.957C257.559 559.06 256.435 553.841 256.354 552.396C256.274 549.826 256.515 549.505 259.085 548.863C260.611 548.461 266.633 547.819 272.335 547.498C282.855 546.775 289.199 545.892 294.419 544.367C295.944 543.885 297.791 543.644 298.434 543.885C299.157 544.126 301.245 547.257 303.092 550.95C304.939 554.563 307.508 559.301 308.793 561.549C315.458 573.191 317.225 576.563 319.233 581.38C320.437 584.27 323.89 594.146 324.854 597.277C325.336 598.803 326.38 602.255 327.263 604.905C328.066 607.554 329.431 611.89 330.154 614.539C330.877 617.189 331.841 620.24 332.162 621.364C333.527 625.78 334.41 629.313 337.382 643.042C339.229 651.232 341.236 657.896 345.573 669.939C347.58 675.559 347.821 676.282 350.07 681.581C350.712 683.106 351.997 686.559 353.041 689.208C354.085 691.858 355.129 694.347 355.45 694.829C357.377 697.478 360.67 708.879 366.773 733.367C374.161 763.074 377.132 774.154 378.738 778.329C381.388 785.074 382.754 787.563 385.404 790.212C388.214 793.022 388.696 794.146 390.061 801.051C390.945 805.387 391.828 811.007 392.069 813.657C392.711 820.561 393.755 822.729 397.048 824.094C400.099 825.379 411.342 826.904 417.686 826.904C421.862 826.824 425.074 825.299 424.11 823.693C423.789 823.131 424.592 823.05 426.841 823.372C432.141 824.255 432.06 822.087 426.439 816.467C423.869 813.817 420.416 809.241 418.81 806.27C417.204 803.219 413.671 797.197 411.021 792.781C407.407 787.081 406.042 784.03 406.042 781.942C405.961 775.359 399.939 757.213 391.828 738.988C384.199 721.886 382.352 717.47 380.023 710.324C375.606 696.675 372.314 677.245 372.314 664.238C372.314 655.005 370.387 645.611 366.693 636.94C363.079 628.189 363.079 628.028 361.794 596.073C360.911 573.271 359.465 554.162 357.538 540.433C355.771 527.988 355.611 513.054 357.297 510.565C361.232 504.543 363.48 487.442 363.48 463.435C363.48 449.626 363.561 448.582 365.408 445.37C366.371 443.443 368.62 439.349 370.306 436.298C376.65 424.575 383.717 413.094 385.966 411.006C387.09 409.963 393.032 401.131 396.807 394.949C402.348 385.796 406.925 376.161 410.057 366.847C412.386 359.782 416.481 348.541 418.087 344.768C419.694 340.834 420.497 337.943 421.541 331.922C423.869 319.316 426.359 301.974 429.009 279.975C430.776 264.639 431.338 263.836 440.974 261.588C445.07 260.625 450.209 258.056 454.706 254.683C456.152 253.64 459.846 252.275 463.138 251.552C466.35 250.91 469.241 250.187 469.643 249.946C469.964 249.706 475.746 249.304 482.411 248.983L494.617 248.341L498.954 243.684C502.728 239.589 503.21 238.706 502.809 236.699C502.407 234.852 502.728 233.808 504.334 231.881C508.269 227.305 508.028 224.976 502.728 216.145C501.202 213.736 499.998 211.247 499.998 210.685C499.998 209.24 497.589 207.393 493.574 205.787C491.566 204.984 485.543 201.371 480.082 197.678C474.622 194.065 469 190.532 467.635 189.89C466.19 189.328 463.299 187.963 461.05 187C454.465 184.109 450.29 180.175 449.727 176.482C449.406 174.715 448.443 172.146 447.479 170.701C445.632 167.891 438.886 164.198 434.229 163.395C420.015 160.986 420.095 161.066 420.175 158.336C420.416 152.716 421.781 151.432 434.63 144.045C438.565 141.797 443.705 138.023 446.194 135.615C450.53 131.279 458.079 120.761 462.496 112.732C467.314 103.9 472.373 92.9008 475.907 83.4266C479.038 74.9963 479.36 74.1934 481.126 70.179C484.981 61.4274 486.748 52.4351 485.784 46.2527C485.302 43.0412 483.937 42.158 483.937 44.9681C483.937 50.1066 474.943 70.2592 472.293 71.1424C471.811 71.303 470.928 69.1352 470.366 66.4053C468.759 59.1793 466.029 51.1504 462.335 42.3989C457.838 31.9613 449.727 20.2391 448.121 21.7646C448.041 21.9252 449.486 25.2973 451.494 29.2314C453.421 33.2459 455.027 36.9392 455.027 37.5012C455.027 38.0633 455.349 39.1071 455.83 39.9099C456.232 40.6325 457.838 45.209 459.444 50.1066C463.379 62.3909 463.459 62.712 465.949 72.7482C468.599 83.6675 468.679 83.1858 459.123 99.4845C450.049 114.9 450.852 114.017 447.8 111.126C444.588 108.075 441.938 102.937 438.967 93.9445C435.112 82.142 435.112 80.5363 438.565 72.5073C443.544 61.026 444.989 51.873 442.902 45.6105C440.814 39.5887 438.806 39.5887 440.011 45.6105C440.974 50.2672 439.368 58.537 436.076 65.5222C434.148 69.7775 431.739 71.2227 431.739 68.252C431.739 67.3688 431.418 66.4857 431.016 66.1645C430.615 65.9236 429.973 64.5587 429.651 63.1938C429.41 61.7486 428.447 58.3764 427.644 55.7269C426.76 53.0773 425.797 49.6249 425.395 48.0994C424.913 46.5739 423.789 42.2383 422.825 38.4647C420.256 28.9103 416.642 21.2026 415.197 22.6478C414.795 22.9689 415.116 24.3338 418.007 35.6546C420.256 44.085 422.585 55.8072 423.709 63.7558C425.315 75.3174 426.359 80.5363 427.804 84.7916C428.607 87.2805 428.929 89.2075 428.447 89.4484C428.045 89.7695 424.592 87.9229 420.818 85.4339C416.963 82.9449 413.671 81.0983 413.51 81.3391C412.707 82.0617 415.518 85.5945 418.971 88.4046C427.162 94.908 432.783 100.849 434.55 104.703C436.477 109.119 439.368 123.089 438.645 124.856C438.083 126.301 425.556 134.491 422.906 135.053C421.781 135.293 419.292 135.936 417.365 136.417C415.437 136.899 413.349 137.14 412.868 136.899C412.306 136.739 411.502 134.812 410.94 132.644C410.378 130.556 409.655 127.505 409.174 125.9C408.772 124.294 408.451 121.564 408.451 119.798C408.451 118.031 407.889 112.732 407.246 107.915C405.961 98.6816 402.428 89.6892 398.413 85.3536C396.004 82.7844 395.923 83.507 397.931 89.2075C400.742 97.3167 401.384 101.572 402.027 118.433C402.508 132.644 402.91 136.257 404.436 141.155C406.283 146.935 406.202 149.264 403.954 157.052C403.633 158.256 395.361 158.417 386.448 157.373C382.432 156.971 380.666 156.409 379.782 155.205C379.22 154.402 376.65 151.512 374.241 148.862C368.058 142.198 365.087 135.053 365.087 127.184C365.087 123.892 365.408 121.082 365.809 120.841C367.094 120.039 368.379 111.126 368.138 105.105L367.897 99.083L366.371 105.105C365.488 108.397 363.962 113.294 362.838 115.944C360.027 122.768 357.859 131.359 357.859 135.775C357.859 138.585 357.538 139.629 356.655 139.629C355.611 139.629 349.026 137.461 344.609 135.615C343.083 135.053 328.066 131.44 310.48 127.586C306.304 126.622 300.522 125.338 297.631 124.695C294.74 123.973 290.805 123.089 288.797 122.688C273.941 119.396 272.737 118.914 267.035 113.214C259.888 105.988 255.873 98.7619 255.873 92.9811C255.873 85.4339 259.165 77.3246 265.75 68.5732C273.7 57.975 283.337 51.311 296.828 46.9753C308.07 43.282 313.692 40.2311 320.437 34.1291C324.693 30.2752 322.365 30.2752 315.94 34.1291C313.29 35.7349 309.998 37.3407 308.633 37.6618C286.95 42.9609 274.182 48.0191 264.706 55.0043C261.976 57.0115 259.245 58.4567 258.683 58.2159C258.121 58.0553 257.479 56.6904 257.157 55.1649C254.427 41.2748 254.748 32.6839 258.282 25.6185C262.377 17.5093 264.305 6.02789 262.377 1.13025C261.895 0.00622559 261.414 1.04999 260.37 5.54614Z" fill="#B7AC92"/>
<path d="M260.37 5.54614C259.004 11.1664 256.595 19.1151 255.15 22.8083C254.748 23.6915 254.026 25.4579 253.544 26.7425C251.777 31.1584 250.251 40.2311 250.251 46.5739C250.251 52.4351 250.653 55.2452 252.821 63.5952C253.463 66.1645 253.223 67.6097 251.697 71.865C250.733 74.6751 249.609 77.0035 249.368 77.0035C246.718 77.0035 245.995 51.7927 248.244 38.0633C250.733 22.8083 251.054 20.3997 251.536 12.9327C251.938 7.63367 251.777 5.54614 251.135 5.54614C250.653 5.54614 250.251 6.26874 250.251 7.15192C250.251 10.1226 246.477 23.7718 243.425 32.0416C242.703 34.0488 241.498 40.8734 240.856 47.2965C239.089 64.639 240.775 82.704 245.835 98.6816C250.492 113.696 258.523 124.374 268.802 129.352C279.482 134.571 302.048 140.833 323.328 144.446C342.2 147.738 350.873 151.03 358.662 157.935L362.196 161.066L359.867 162.271C356.173 164.198 349.588 165.322 342.682 165.322C337.221 165.322 335.615 164.92 330.475 162.592C312.808 154.563 293.455 150.87 268.4 150.87C251.054 150.87 239.25 153.198 234.913 157.453C232.504 159.862 232.424 160.183 232.745 165.643C233.146 173.19 235.877 178.971 241.819 184.832C247.842 190.854 252.5 193.021 265.911 195.831C270.327 196.715 275.547 197.919 277.555 198.401C283.096 199.685 305.179 200.167 311.925 199.123C318.59 198.08 327.343 195.269 334.972 191.737C342.28 188.365 342.842 188.605 343.565 195.43C343.886 198.642 343.806 202.415 343.324 204.262C342.521 207.313 341.638 211.167 340.192 217.51C339.871 219.035 338.425 226.1 337.06 233.166C333.447 251.07 332.724 253.319 327.183 261.829C322.124 269.617 314.655 284.471 309.436 297.076C308.793 298.682 306.866 301.01 305.26 302.295C303.654 303.58 300.682 305.908 298.675 307.514C295.222 310.404 294.981 310.404 285.746 310.966C272.174 311.769 261.253 312.732 253.463 313.857C243.827 315.302 225.036 315.141 214.516 313.616C207.529 312.572 204.317 311.689 199.258 309.2C176.05 297.879 163.041 294.587 141.037 294.587C128.349 294.587 119.837 295.711 112.529 298.2C104.418 301.01 91.891 308.397 84.9045 314.579C81.7726 317.309 80.4075 316.667 75.9907 310.565C71.9755 305.025 71.8149 304.623 69.8876 293.945C66.6754 275.478 65.1496 270.26 60.8935 263.435C59.6086 261.347 57.0389 256.53 55.1116 252.596C53.1843 248.742 51.257 245.611 50.7751 245.611C49.6509 245.611 44.672 253.64 42.7447 258.457C40.7371 263.435 39.131 270.26 39.0507 274.033C39.0507 275.719 38.328 278.369 37.3643 279.894C35.8385 282.383 35.6779 283.427 36.0794 288.806C36.8022 298.441 38.0067 300.448 54.6297 319.396C61.3753 327.265 65.8724 334.009 65.0693 335.213C64.6678 335.775 62.1784 339.388 59.5283 343.242C54.6297 350.308 54.3085 350.95 50.1327 359.059C47.322 364.519 47.0008 366.366 42.2629 408.357C41.8613 412.291 40.7371 425.137 39.8537 437.1C37.7658 465.683 36.24 477.566 34.2324 480.457C33.9112 480.858 32.7066 483.748 31.4218 486.88C30.2172 489.931 28.9323 493.223 28.5308 494.106C28.2096 494.989 27.3263 497.478 26.6035 499.726C25.2383 503.901 21.2231 509.682 16.0033 514.901L12.9518 517.952V534.893C12.9518 551.272 12.6305 557.213 10.9442 575.599C6.3668 623.692 3.55615 649.305 1.62884 660.224C0.022755 668.976 0.183364 678.128 2.11067 685.917C3.87737 693.464 4.27889 698.763 3.39554 704.544C2.6728 709.2 4.35919 716.266 6.92893 719.558C10.8638 724.536 24.1141 727.025 27.4066 723.331C28.2096 722.448 29.8157 721.725 31.0203 721.725C33.9915 721.725 34.7946 719.558 32.6263 716.908C27.2459 710.164 22.1868 694.267 22.1868 683.829C22.1868 680.858 21.464 675.318 20.5807 671.545C18.7337 663.757 18.5731 657.896 19.7776 645.049C20.2595 640.232 21.0625 632.042 21.464 626.984C22.508 615.583 25.3186 595.912 27.8081 582.825C29.3339 574.716 30.7793 569.818 33.2688 564.359C34.7143 560.987 35.9991 556.25 38.328 545.491C39.2916 540.754 39.4522 540.513 52.863 527.105C60.3314 519.638 66.5148 513.696 66.6754 513.857C67.1572 514.419 68.683 548.863 68.9239 563.556C69.0042 571.264 68.8436 586.599 68.5224 597.598C67.7997 619.517 68.2012 617.912 62.0177 627.707C60.492 630.035 59.9298 632.042 59.9298 634.933C59.9298 642.079 66.033 655.969 69.6467 657.093C71.8952 657.815 74.3846 656.772 74.3846 655.085C74.3846 654.283 74.7861 653.319 75.1877 653.078C75.6695 652.837 75.9907 653.078 75.9907 653.721C75.9907 654.363 76.5528 655.326 77.1953 655.888C78.8817 657.253 81.0499 655.246 82.2545 651.232C83.3787 647.378 84.7439 635.254 85.2257 624.656C85.4666 620.079 85.8682 615.904 86.2697 615.423C89 611.729 89.4819 599.365 87.3136 588.847C85.1454 578.49 84.503 566.527 84.5833 532.243C84.5833 499.003 84.6636 496.193 86.1091 492.179C88.8394 484.551 89.5622 484.632 101.528 494.106C110.522 501.332 116.705 504.383 125.779 506.229C135.095 508.076 150.513 507.514 157.901 504.945C162.318 503.419 164.165 503.259 170.027 503.66C179.905 504.302 197.25 508.799 201.908 511.85C203.835 513.134 203.835 513.375 203.354 520.521C202.711 529.754 204.638 550.228 206.164 551.191C206.566 551.432 206.887 552.155 206.887 552.877C206.887 554.563 211.866 564.439 228.168 595.27C249.047 634.692 249.368 635.415 251.777 645.611C253.865 654.122 253.865 654.363 251.938 657.655C251.054 659.1 249.769 662.071 249.047 664.319C246.075 673.311 240.374 681.42 225.839 697.157C221.824 701.493 217.487 706.471 216.122 708.157C214.837 709.923 213.472 711.288 213.07 711.288C212.669 711.288 211.063 710.164 209.457 708.799C205.12 705.025 202.069 703.982 196.688 704.544C190.987 705.186 188.096 706.872 183.036 712.412C176.612 719.477 173.721 727.265 176.773 729.754C177.656 730.477 178.78 730.477 181.752 729.754C184.723 728.952 186.65 728.952 189.862 729.674C192.191 730.156 196.447 730.557 199.258 730.557C203.032 730.557 205.843 731.119 209.617 732.645C213.954 734.491 215.399 734.732 219.173 734.251C226.481 733.287 231.46 728.149 239.41 713.295C248.645 696.033 248.886 695.712 257.8 687.843C267.115 679.574 267.918 679.012 273.218 675.318C284.22 667.932 287.111 655.969 281.891 639.831C280.526 635.896 280.044 634.772 274.343 622.568C269.846 613.014 268.561 608.759 266.312 596.474C264.064 584.511 261.895 574.877 258.924 563.957C257.559 559.06 256.435 553.841 256.354 552.396C256.274 549.826 256.515 549.505 259.085 548.863C260.611 548.461 266.633 547.819 272.335 547.498C282.855 546.775 289.199 545.892 294.419 544.367C295.944 543.885 297.791 543.644 298.434 543.885C299.157 544.126 301.245 547.257 303.092 550.95C304.939 554.563 307.508 559.301 308.793 561.549C315.458 573.191 317.225 576.563 319.233 581.38C320.437 584.27 323.89 594.146 324.854 597.277C325.336 598.803 326.38 602.255 327.263 604.905C328.066 607.554 329.431 611.89 330.154 614.539C330.877 617.189 331.841 620.24 332.162 621.364C333.527 625.78 334.41 629.313 337.382 643.042C339.229 651.232 341.236 657.896 345.573 669.939C347.58 675.559 347.821 676.282 350.07 681.581C350.712 683.106 351.997 686.559 353.041 689.208C354.085 691.858 355.129 694.347 355.45 694.829C357.377 697.478 360.67 708.879 366.773 733.367C374.161 763.074 377.132 774.154 378.738 778.329C381.388 785.074 382.754 787.563 385.404 790.212C388.214 793.022 388.696 794.146 390.061 801.051C390.945 805.387 391.828 811.007 392.069 813.657C392.711 820.561 393.755 822.729 397.048 824.094C400.099 825.379 411.342 826.904 417.686 826.904C421.862 826.824 425.074 825.299 424.11 823.693C423.789 823.131 424.592 823.05 426.841 823.372C432.141 824.255 432.06 822.087 426.439 816.467C423.869 813.817 420.416 809.241 418.81 806.27C417.204 803.219 413.671 797.197 411.021 792.781C407.407 787.081 406.042 784.03 406.042 781.942C405.961 775.359 399.939 757.213 391.828 738.988C384.199 721.886 382.352 717.47 380.023 710.324C375.606 696.675 372.314 677.245 372.314 664.238C372.314 655.005 370.387 645.611 366.693 636.94C363.079 628.189 363.079 628.028 361.794 596.073C360.911 573.271 359.465 554.162 357.538 540.433C355.771 527.988 355.611 513.054 357.297 510.565C361.232 504.543 363.48 487.442 363.48 463.435C363.48 449.626 363.561 448.582 365.408 445.37C366.371 443.443 368.62 439.349 370.306 436.298C376.65 424.575 383.717 413.094 385.966 411.006C387.09 409.963 393.032 401.131 396.807 394.949C402.348 385.796 406.925 376.161 410.057 366.847C412.386 359.782 416.481 348.541 418.087 344.768C419.694 340.834 420.497 337.943 421.541 331.922C423.869 319.316 426.359 301.974 429.009 279.975C430.776 264.639 431.338 263.836 440.974 261.588C445.07 260.625 450.209 258.056 454.706 254.683C456.152 253.64 459.846 252.275 463.138 251.552C466.35 250.91 469.241 250.187 469.643 249.946C469.964 249.706 475.746 249.304 482.411 248.983L494.617 248.341L498.954 243.684C502.728 239.589 503.21 238.706 502.809 236.699C502.407 234.852 502.728 233.808 504.334 231.881C508.269 227.305 508.028 224.976 502.728 216.145C501.202 213.736 499.998 211.247 499.998 210.685C499.998 209.24 497.589 207.393 493.574 205.787C491.566 204.984 485.543 201.371 480.082 197.678C474.622 194.065 469 190.532 467.635 189.89C466.19 189.328 463.299 187.963 461.05 187C454.465 184.109 450.29 180.175 449.727 176.482C449.406 174.715 448.443 172.146 447.479 170.701C445.632 167.891 438.886 164.198 434.229 163.395C420.015 160.986 420.095 161.066 420.175 158.336C420.416 152.716 421.781 151.432 434.63 144.045C438.565 141.797 443.705 138.023 446.194 135.615C450.53 131.279 458.079 120.761 462.496 112.732C467.314 103.9 472.373 92.9008 475.907 83.4266C479.038 74.9963 479.36 74.1934 481.126 70.179C484.981 61.4274 486.748 52.4351 485.784 46.2527C485.302 43.0412 483.937 42.158 483.937 44.9681C483.937 50.1066 474.943 70.2592 472.293 71.1424C471.811 71.303 470.928 69.1352 470.366 66.4053C468.759 59.1793 466.029 51.1504 462.335 42.3989C457.838 31.9613 449.727 20.2391 448.121 21.7646C448.041 21.9252 449.486 25.2973 451.494 29.2314C453.421 33.2459 455.027 36.9392 455.027 37.5012C455.027 38.0633 455.349 39.1071 455.83 39.9099C456.232 40.6325 457.838 45.209 459.444 50.1066C463.379 62.3909 463.459 62.712 465.949 72.7482C468.599 83.6675 468.679 83.1858 459.123 99.4845C450.049 114.9 450.852 114.017 447.8 111.126C444.588 108.075 441.938 102.937 438.967 93.9445C435.112 82.142 435.112 80.5363 438.565 72.5073C443.544 61.026 444.989 51.873 442.902 45.6105C440.814 39.5887 438.806 39.5887 440.011 45.6105C440.974 50.2672 439.368 58.537 436.076 65.5222C434.148 69.7775 431.739 71.2227 431.739 68.252C431.739 67.3688 431.418 66.4857 431.016 66.1645C430.615 65.9236 429.973 64.5587 429.651 63.1938C429.41 61.7486 428.447 58.3764 427.644 55.7269C426.76 53.0773 425.797 49.6249 425.395 48.0994C424.913 46.5739 423.789 42.2383 422.825 38.4647C420.256 28.9103 416.642 21.2026 415.197 22.6478C414.795 22.9689 415.116 24.3338 418.007 35.6546C420.256 44.085 422.585 55.8072 423.709 63.7558C425.315 75.3174 426.359 80.5363 427.804 84.7916C428.607 87.2805 428.929 89.2075 428.447 89.4484C428.045 89.7695 424.592 87.9229 420.818 85.4339C416.963 82.9449 413.671 81.0983 413.51 81.3391C412.707 82.0617 415.518 85.5945 418.971 88.4046C427.162 94.908 432.783 100.849 434.55 104.703C436.477 109.119 439.368 123.089 438.645 124.856C438.083 126.301 425.556 134.491 422.906 135.053C421.781 135.293 419.292 135.936 417.365 136.417C415.437 136.899 413.349 137.14 412.868 136.899C412.306 136.739 411.502 134.812 410.94 132.644C410.378 130.556 409.655 127.505 409.174 125.9C408.772 124.294 408.451 121.564 408.451 119.798C408.451 118.031 407.889 112.732 407.246 107.915C405.961 98.6816 402.428 89.6892 398.413 85.3536C396.004 82.7844 395.923 83.507 397.931 89.2075C400.742 97.3167 401.384 101.572 402.027 118.433C402.508 132.644 402.91 136.257 404.436 141.155C406.283 146.935 406.202 149.264 403.954 157.052C403.633 158.256 395.361 158.417 386.448 157.373C382.432 156.971 380.666 156.409 379.782 155.205C379.22 154.402 376.65 151.512 374.241 148.862C368.058 142.198 365.087 135.053 365.087 127.184C365.087 123.892 365.408 121.082 365.809 120.841C367.094 120.039 368.379 111.126 368.138 105.105L367.897 99.083L366.371 105.105C365.488 108.397 363.962 113.294 362.838 115.944C360.027 122.768 357.859 131.359 357.859 135.775C357.859 138.585 357.538 139.629 356.655 139.629C355.611 139.629 349.026 137.461 344.609 135.615C343.083 135.053 328.066 131.44 310.48 127.586C306.304 126.622 300.522 125.338 297.631 124.695C294.74 123.973 290.805 123.089 288.797 122.688C273.941 119.396 272.737 118.914 267.035 113.214C259.888 105.988 255.873 98.7619 255.873 92.9811C255.873 85.4339 259.165 77.3246 265.75 68.5732C273.7 57.975 283.337 51.311 296.828 46.9753C308.07 43.282 313.692 40.2311 320.437 34.1291C324.693 30.2752 322.365 30.2752 315.94 34.1291C313.29 35.7349 309.998 37.3407 308.633 37.6618C286.95 42.9609 274.182 48.0191 264.706 55.0043C261.976 57.0115 259.245 58.4567 258.683 58.2159C258.121 58.0553 257.479 56.6904 257.157 55.1649C254.427 41.2748 254.748 32.6839 258.282 25.6185C262.377 17.5093 264.305 6.02789 262.377 1.13025C261.895 0.00622559 261.414 1.04999 260.37 5.54614Z" fill="#B7AC92"/>
<path d="M144.505 400.494C99.8174 427.945 41.4605 422.917 50.003 373.264C59.0794 343.899 86.761 314.77 109.267 304.924C134.895 293.711 196.828 299.051 202.701 328.416C208.574 357.781 181.879 377.535 144.505 400.494Z" fill="#E28532" stroke="#E7E0D6" stroke-width="3" stroke-linecap="round" stroke-linejoin="round" stroke-dasharray="3 7"/>
<path d="M259.526 402.802C282.571 432.696 321.547 438.908 326.79 397.533C327.278 372.357 315.636 344.103 303.166 332.243C288.965 318.738 247.6 312.148 237.407 334.699C227.214 357.249 240.252 377.802 259.526 402.802Z" fill="#E28532" stroke="#E7E0D6" stroke-width="3" stroke-linecap="round" stroke-linejoin="round" stroke-dasharray="3 7"/>
</svg>
