<svg width="508" height="827" viewBox="0 0 508 827" fill="none" xmlns="http://www.w3.org/2000/svg">
<path d="M260.362 5.54384C258.996 11.1641 256.587 19.1127 255.142 22.806C254.74 23.6892 254.017 25.4556 253.536 26.7402C251.769 31.1561 250.243 40.2288 250.243 46.5716C250.243 52.4327 250.645 55.2428 252.813 63.5929C253.455 66.1622 253.214 67.6074 251.689 71.8627C250.725 74.6728 249.601 77.0012 249.36 77.0012C246.71 77.0012 245.987 51.7904 248.236 38.061C250.725 22.806 251.046 20.3973 251.528 12.9304C251.93 7.63136 251.769 5.54384 251.127 5.54384C250.645 5.54384 250.243 6.26645 250.243 7.14963C250.243 10.1203 246.469 23.7695 243.417 32.0393C242.695 34.0465 241.49 40.8711 240.848 47.2942C239.081 64.6367 240.767 82.7017 245.826 98.6793C250.484 113.693 258.515 124.372 268.794 129.35C279.474 134.569 302.04 140.831 323.32 144.444C342.192 147.736 350.865 151.028 358.654 157.933L362.187 161.064L359.859 162.268C356.165 164.195 349.58 165.319 342.674 165.319C337.213 165.319 335.607 164.918 330.467 162.589C312.8 154.561 293.447 150.867 268.392 150.867C251.046 150.867 239.241 153.196 234.905 157.451C232.496 159.86 232.416 160.181 232.737 165.64C233.138 173.188 235.869 178.968 241.811 184.83C247.834 190.851 252.492 193.019 265.903 195.829C270.319 196.712 275.539 197.917 277.547 198.398C283.088 199.683 305.171 200.165 311.917 199.121C318.582 198.077 327.335 195.267 334.964 191.734C342.272 188.362 342.834 188.603 343.557 195.428C343.878 198.639 343.798 202.413 343.316 204.26C342.513 207.311 341.63 211.164 340.184 217.507C339.863 219.033 338.417 226.098 337.052 233.164C333.439 251.068 332.716 253.316 327.175 261.827C322.116 269.615 314.647 284.468 309.428 297.074C308.785 298.68 306.858 301.008 305.252 302.293C303.646 303.577 300.674 305.906 298.667 307.511C295.214 310.402 294.973 310.402 285.738 310.964C272.166 311.767 261.245 312.73 253.455 313.854C243.819 315.299 225.028 315.139 214.508 313.613C207.521 312.57 204.309 311.686 199.25 309.197C176.042 297.877 163.033 294.585 141.029 294.585C128.341 294.585 119.829 295.709 112.521 298.198C104.41 301.008 91.8829 308.395 84.8964 314.577C81.7645 317.307 80.3994 316.664 75.9826 310.562C71.9674 305.022 71.8068 304.621 69.8795 293.943C66.6673 275.476 65.1415 270.257 60.8854 263.433C59.6005 261.345 57.0308 256.528 55.1035 252.594C53.1762 248.74 51.2489 245.608 50.767 245.608C49.6428 245.608 44.6639 253.637 42.7366 258.455C40.729 263.433 39.1229 270.257 39.0426 274.031C39.0426 275.717 38.3199 278.366 37.3562 279.892C35.8304 282.381 35.6698 283.425 36.0713 288.804C36.7941 298.439 37.9986 300.446 54.6217 319.394C61.3672 327.263 65.8643 334.007 65.0612 335.211C64.6597 335.773 62.1703 339.386 59.5202 343.24C54.6217 350.306 54.3004 350.948 50.1246 359.057C47.314 364.517 46.9927 366.363 42.2548 408.355C41.8533 412.289 40.729 425.135 39.8456 437.098C37.7577 465.681 36.232 477.564 34.2243 480.454C33.9031 480.856 32.6986 483.746 31.4137 486.877C30.2091 489.928 28.9243 493.22 28.5227 494.103C28.2015 494.987 27.3182 497.476 26.5954 499.724C25.2302 503.899 21.215 509.679 15.9952 514.898L12.9437 517.949V534.89C12.9437 551.269 12.6225 557.211 10.9361 575.597C6.35872 623.69 3.54806 649.302 1.62076 660.222C0.0146678 668.973 0.175277 678.126 2.10258 685.914C3.86928 693.461 4.2708 698.76 3.38745 704.541C2.66471 709.198 4.35111 716.264 6.92085 719.555C10.8558 724.533 24.106 727.022 27.3985 723.329C28.2015 722.446 29.8076 721.723 31.0122 721.723C33.9834 721.723 34.7865 719.555 32.6183 716.906C27.2379 710.162 22.1787 694.264 22.1787 683.827C22.1787 680.856 21.4559 675.316 20.5726 671.542C18.7256 663.754 18.565 657.893 19.7696 645.047C20.2514 640.23 21.0544 632.04 21.4559 626.982C22.4999 615.581 25.3106 595.91 27.8 582.823C29.3258 574.714 30.7713 569.816 33.2607 564.356C34.7062 560.984 35.991 556.247 38.3199 545.488C39.2835 540.751 39.4441 540.511 52.855 527.102C60.3233 519.635 66.5067 513.694 66.6673 513.855C67.1491 514.417 68.6749 548.861 68.9158 563.554C68.9961 571.261 68.8355 586.597 68.5143 597.596C67.7916 619.515 68.1931 617.909 62.0097 627.705C60.4839 630.033 59.9217 632.04 59.9217 634.931C59.9217 642.076 66.0249 655.966 69.6386 657.09C71.8871 657.813 74.3765 656.769 74.3765 655.083C74.3765 654.28 74.7781 653.317 75.1796 653.076C75.6614 652.835 75.9826 653.076 75.9826 653.718C75.9826 654.361 76.5448 655.324 77.1872 655.886C78.8736 657.251 81.0418 655.244 82.2464 651.229C83.3706 647.375 84.7358 635.252 85.2176 624.654C85.4585 620.077 85.8601 615.902 86.2616 615.42C88.9919 611.727 89.4738 599.362 87.3055 588.845C85.1373 578.487 84.4949 566.524 84.5752 532.241C84.5752 499.001 84.6555 496.191 86.101 492.176C88.8313 484.549 89.5541 484.629 101.519 494.103C110.514 501.329 116.697 504.38 125.771 506.227C135.087 508.074 150.505 507.512 157.893 504.942C162.31 503.417 164.157 503.256 170.019 503.658C179.897 504.3 197.242 508.796 201.9 511.847C203.827 513.132 203.827 513.373 203.345 520.519C202.703 529.752 204.63 550.226 206.156 551.189C206.558 551.43 206.879 552.152 206.879 552.875C206.879 554.561 211.858 564.437 228.159 595.268C249.039 634.69 249.36 635.412 251.769 645.609C253.857 654.12 253.857 654.361 251.93 657.652C251.046 659.098 249.761 662.068 249.039 664.316C246.067 673.309 240.366 681.418 225.831 697.155C221.815 701.49 217.479 706.468 216.114 708.154C214.829 709.921 213.464 711.286 213.062 711.286C212.661 711.286 211.055 710.162 209.449 708.797C205.112 705.023 202.061 703.979 196.68 704.541C190.979 705.184 188.088 706.87 183.028 712.41C176.604 719.475 173.713 727.263 176.765 729.752C177.648 730.475 178.772 730.475 181.744 729.752C184.715 728.949 186.642 728.949 189.854 729.672C192.183 730.154 196.439 730.555 199.25 730.555C203.024 730.555 205.835 731.117 209.609 732.643C213.946 734.489 215.391 734.73 219.165 734.248C226.473 733.285 231.452 728.146 239.402 713.293C248.637 696.031 248.878 695.709 257.792 687.841C267.107 679.571 267.91 679.009 273.21 675.316C284.212 667.929 287.103 655.966 281.883 639.828C280.518 635.894 280.036 634.77 274.335 622.566C269.837 613.012 268.553 608.756 266.304 596.472C264.056 584.509 261.887 574.874 258.916 563.955C257.551 559.057 256.427 553.839 256.346 552.393C256.266 549.824 256.507 549.503 259.077 548.861C260.602 548.459 266.625 547.817 272.327 547.496C282.847 546.773 289.191 545.89 294.411 544.364C295.936 543.883 297.783 543.642 298.426 543.883C299.149 544.124 301.236 547.255 303.083 550.948C304.93 554.561 307.5 559.298 308.785 561.546C315.45 573.188 317.217 576.56 319.225 581.378C320.429 584.268 323.882 594.144 324.846 597.275C325.328 598.8 326.372 602.253 327.255 604.902C328.058 607.552 329.423 611.888 330.146 614.537C330.869 617.187 331.832 620.238 332.154 621.362C333.519 625.778 334.402 629.31 337.373 643.04C339.22 651.229 341.228 657.893 345.564 669.937C347.572 675.557 347.813 676.28 350.062 681.579C350.704 683.104 351.989 686.557 353.033 689.206C354.077 691.856 355.121 694.345 355.442 694.826C357.369 697.476 360.662 708.877 366.765 733.365C374.153 763.072 377.124 774.152 378.73 778.327C381.38 785.071 382.745 787.56 385.395 790.21C388.206 793.02 388.688 794.144 390.053 801.049C390.936 805.384 391.82 811.005 392.061 813.654C392.703 820.559 393.747 822.727 397.04 824.092C400.091 825.376 411.334 826.902 417.678 826.902C421.854 826.822 425.066 825.296 424.102 823.69C423.781 823.128 424.584 823.048 426.833 823.369C432.133 824.252 432.052 822.085 426.431 816.464C423.861 813.815 420.408 809.238 418.802 806.268C417.196 803.217 413.663 797.195 411.013 792.779C407.399 787.079 406.034 784.028 406.034 781.94C405.953 775.356 399.931 757.211 391.82 738.985C384.191 721.884 382.344 717.468 380.015 710.322C375.598 696.673 372.306 677.243 372.306 664.236C372.306 655.003 370.379 645.609 366.685 636.938C363.071 628.186 363.071 628.026 361.786 596.071C360.903 573.269 359.457 554.16 357.53 540.43C355.763 527.985 355.603 513.052 357.289 510.563C361.224 504.541 363.472 487.439 363.472 463.433C363.472 449.623 363.553 448.579 365.4 445.368C366.363 443.441 368.612 439.346 370.298 436.295C376.642 424.573 383.709 413.092 385.958 411.004C387.082 409.96 393.024 401.129 396.799 394.946C402.34 385.793 406.917 376.159 410.049 366.845C412.378 359.78 416.473 348.539 418.079 344.766C419.685 340.831 420.488 337.941 421.532 331.919C423.861 319.314 426.351 301.971 429.001 279.972C430.767 264.637 431.33 263.834 440.966 261.586C445.062 260.623 450.201 258.053 454.698 254.681C456.144 253.637 459.838 252.272 463.13 251.55C466.342 250.908 469.233 250.185 469.635 249.944C469.956 249.703 475.738 249.302 482.403 248.981L494.609 248.338L498.946 243.681C502.72 239.587 503.202 238.704 502.8 236.696C502.399 234.85 502.72 233.806 504.326 231.879C508.261 227.303 508.02 224.974 502.72 216.142C501.194 213.734 499.99 211.245 499.99 210.683C499.99 209.237 497.581 207.391 493.565 205.785C491.558 204.982 485.535 201.369 480.074 197.676C474.614 194.063 468.992 190.53 467.627 189.888C466.182 189.326 463.291 187.961 461.042 186.997C454.457 184.107 450.281 180.173 449.719 176.479C449.398 174.713 448.434 172.144 447.471 170.699C445.624 167.889 438.878 164.195 434.221 163.392C420.007 160.984 420.087 161.064 420.167 158.334C420.408 152.714 421.773 151.429 434.622 144.043C438.557 141.795 443.696 138.021 446.186 135.612C450.522 131.277 458.071 120.759 462.488 112.73C467.306 103.898 472.365 92.8985 475.898 83.4243C479.03 74.994 479.352 74.1911 481.118 70.1766C484.973 61.4251 486.74 52.4327 485.776 46.2504C485.294 43.0389 483.929 42.1557 483.929 44.9658C483.929 50.1043 474.935 70.2569 472.285 71.1401C471.803 71.3007 470.92 69.1329 470.357 66.403C468.751 59.177 466.021 51.1481 462.327 42.3966C457.83 31.959 449.719 20.2368 448.113 21.7623C448.033 21.9228 449.478 25.295 451.486 29.2291C453.413 33.2436 455.019 36.9369 455.019 37.4989C455.019 38.061 455.341 39.1047 455.822 39.9076C456.224 40.6302 457.83 45.2067 459.436 50.1043C463.371 62.3886 463.451 62.7097 465.941 72.7459C468.591 83.6652 468.671 83.1835 459.115 99.4822C450.04 114.898 450.844 114.015 447.792 111.124C444.58 108.073 441.93 102.935 438.959 93.9422C435.104 82.1397 435.104 80.5339 438.557 72.505C443.536 61.0237 444.981 51.8707 442.893 45.6081C440.806 39.5864 438.798 39.5864 440.002 45.6081C440.966 50.2649 439.36 58.5347 436.068 65.5198C434.14 69.7752 431.731 71.2204 431.731 68.2497C431.731 67.3665 431.41 66.4833 431.008 66.1622C430.607 65.9213 429.964 64.5564 429.643 63.1915C429.402 61.7463 428.439 58.3741 427.636 55.7246C426.752 53.075 425.789 49.6226 425.387 48.0971C424.905 46.5716 423.781 42.236 422.817 38.4624C420.248 28.908 416.634 21.2002 415.188 22.6454C414.787 22.9666 415.108 24.3315 417.999 35.6523C420.248 44.0826 422.576 55.8049 423.701 63.7535C425.307 75.3151 426.351 80.5339 427.796 84.7892C428.599 87.2782 428.92 89.2052 428.439 89.446C428.037 89.7672 424.584 87.9205 420.81 85.4316C416.955 82.9426 413.663 81.0959 413.502 81.3368C412.699 82.0594 415.51 85.5921 418.963 88.4023C427.154 94.9057 432.775 100.847 434.542 104.701C436.469 109.117 439.36 123.087 438.637 124.854C438.075 126.299 425.548 134.488 422.898 135.05C421.773 135.291 419.284 135.933 417.357 136.415C415.429 136.897 413.341 137.138 412.86 136.897C412.297 136.736 411.494 134.809 410.932 132.642C410.37 130.554 409.647 127.503 409.166 125.897C408.764 124.292 408.443 121.562 408.443 119.795C408.443 118.029 407.881 112.73 407.238 107.913C405.953 98.6793 402.42 89.6869 398.405 85.3513C395.996 82.782 395.915 83.5046 397.923 89.2052C400.734 97.3144 401.376 101.57 402.018 118.43C402.5 132.642 402.902 136.255 404.428 141.152C406.275 146.933 406.194 149.261 403.946 157.049C403.625 158.254 395.353 158.414 386.439 157.371C382.424 156.969 380.658 156.407 379.774 155.203C379.212 154.4 376.642 151.51 374.233 148.86C368.05 142.196 365.078 135.05 365.078 127.182C365.078 123.89 365.4 121.08 365.801 120.839C367.086 120.036 368.371 111.124 368.13 105.102L367.889 99.0807L366.363 105.102C365.48 108.394 363.954 113.292 362.83 115.941C360.019 122.766 357.851 131.357 357.851 135.773C357.851 138.583 357.53 139.627 356.646 139.627C355.603 139.627 349.018 137.459 344.601 135.612C343.075 135.05 328.058 131.437 310.471 127.583C306.296 126.62 300.514 125.335 297.623 124.693C294.732 123.97 290.797 123.087 288.789 122.686C273.933 119.394 272.728 118.912 267.027 113.212C259.88 105.986 255.864 98.7596 255.864 92.9787C255.864 85.4316 259.157 77.3224 265.742 68.5708C273.692 57.9727 283.329 51.3087 296.82 46.9731C308.062 43.2797 313.684 40.2288 320.429 34.1268C324.685 30.2729 322.357 30.2729 315.932 34.1268C313.282 35.7326 309.99 37.3384 308.624 37.6595C286.942 42.9586 274.174 48.0168 264.698 55.002C261.968 57.0092 259.237 58.4544 258.675 58.2135C258.113 58.053 257.471 56.688 257.149 55.1625C254.419 41.2725 254.74 32.6816 258.274 25.6161C262.369 17.5069 264.296 6.02558 262.369 1.12794C261.887 0.00389094 261.405 1.04765 260.362 5.54384Z" fill="#B7AC92"/>
<path d="M260.362 5.54384C258.996 11.1641 256.587 19.1127 255.142 22.806C254.74 23.6892 254.017 25.4556 253.536 26.7402C251.769 31.1561 250.243 40.2288 250.243 46.5716C250.243 52.4327 250.645 55.2428 252.813 63.5929C253.455 66.1622 253.214 67.6074 251.689 71.8627C250.725 74.6728 249.601 77.0012 249.36 77.0012C246.71 77.0012 245.987 51.7904 248.236 38.061C250.725 22.806 251.046 20.3973 251.528 12.9304C251.93 7.63136 251.769 5.54384 251.127 5.54384C250.645 5.54384 250.243 6.26645 250.243 7.14963C250.243 10.1203 246.469 23.7695 243.417 32.0393C242.695 34.0465 241.49 40.8711 240.848 47.2942C239.081 64.6367 240.767 82.7017 245.826 98.6793C250.484 113.693 258.515 124.372 268.794 129.35C279.474 134.569 302.04 140.831 323.32 144.444C342.192 147.736 350.865 151.028 358.654 157.933L362.187 161.064L359.859 162.268C356.165 164.195 349.58 165.319 342.674 165.319C337.213 165.319 335.607 164.918 330.467 162.589C312.8 154.561 293.447 150.867 268.392 150.867C251.046 150.867 239.241 153.196 234.905 157.451C232.496 159.86 232.416 160.181 232.737 165.64C233.138 173.188 235.869 178.968 241.811 184.83C247.834 190.851 252.492 193.019 265.903 195.829C270.319 196.712 275.539 197.917 277.547 198.398C283.088 199.683 305.171 200.165 311.917 199.121C318.582 198.077 327.335 195.267 334.964 191.734C342.272 188.362 342.834 188.603 343.557 195.428C343.878 198.639 343.798 202.413 343.316 204.26C342.513 207.311 341.63 211.164 340.184 217.507C339.863 219.033 338.417 226.098 337.052 233.164C333.439 251.068 332.716 253.316 327.175 261.827C322.116 269.615 314.647 284.468 309.428 297.074C308.785 298.68 306.858 301.008 305.252 302.293C303.646 303.577 300.674 305.906 298.667 307.511C295.214 310.402 294.973 310.402 285.738 310.964C272.166 311.767 261.245 312.73 253.455 313.854C243.819 315.299 225.028 315.139 214.508 313.613C207.521 312.57 204.309 311.686 199.25 309.197C176.042 297.877 163.033 294.585 141.029 294.585C128.341 294.585 119.829 295.709 112.521 298.198C104.41 301.008 91.8829 308.395 84.8964 314.577C81.7645 317.307 80.3994 316.664 75.9826 310.562C71.9674 305.022 71.8068 304.621 69.8795 293.943C66.6673 275.476 65.1415 270.257 60.8854 263.433C59.6005 261.345 57.0308 256.528 55.1035 252.594C53.1762 248.74 51.2489 245.608 50.767 245.608C49.6428 245.608 44.6639 253.637 42.7366 258.455C40.729 263.433 39.1229 270.257 39.0426 274.031C39.0426 275.717 38.3199 278.366 37.3562 279.892C35.8304 282.381 35.6698 283.425 36.0713 288.804C36.7941 298.439 37.9986 300.446 54.6217 319.394C61.3672 327.263 65.8643 334.007 65.0612 335.211C64.6597 335.773 62.1703 339.386 59.5202 343.24C54.6217 350.306 54.3004 350.948 50.1246 359.057C47.314 364.517 46.9927 366.363 42.2548 408.355C41.8533 412.289 40.729 425.135 39.8456 437.098C37.7577 465.681 36.232 477.564 34.2243 480.454C33.9031 480.856 32.6986 483.746 31.4137 486.877C30.2091 489.928 28.9243 493.22 28.5227 494.103C28.2015 494.987 27.3182 497.476 26.5954 499.724C25.2302 503.899 21.215 509.679 15.9952 514.898L12.9437 517.949V534.89C12.9437 551.269 12.6225 557.211 10.9361 575.597C6.35872 623.69 3.54806 649.302 1.62076 660.222C0.0146678 668.973 0.175277 678.126 2.10258 685.914C3.86928 693.461 4.2708 698.76 3.38745 704.541C2.66471 709.198 4.35111 716.264 6.92085 719.555C10.8558 724.533 24.106 727.022 27.3985 723.329C28.2015 722.446 29.8076 721.723 31.0122 721.723C33.9834 721.723 34.7865 719.555 32.6183 716.906C27.2379 710.162 22.1787 694.264 22.1787 683.827C22.1787 680.856 21.4559 675.316 20.5726 671.542C18.7256 663.754 18.565 657.893 19.7696 645.047C20.2514 640.23 21.0544 632.04 21.4559 626.982C22.4999 615.581 25.3106 595.91 27.8 582.823C29.3258 574.714 30.7713 569.816 33.2607 564.356C34.7062 560.984 35.991 556.247 38.3199 545.488C39.2835 540.751 39.4441 540.511 52.855 527.102C60.3233 519.635 66.5067 513.694 66.6673 513.855C67.1491 514.417 68.6749 548.861 68.9158 563.554C68.9961 571.261 68.8355 586.597 68.5143 597.596C67.7916 619.515 68.1931 617.909 62.0097 627.705C60.4839 630.033 59.9217 632.04 59.9217 634.931C59.9217 642.076 66.0249 655.966 69.6386 657.09C71.8871 657.813 74.3765 656.769 74.3765 655.083C74.3765 654.28 74.7781 653.317 75.1796 653.076C75.6614 652.835 75.9826 653.076 75.9826 653.718C75.9826 654.361 76.5448 655.324 77.1872 655.886C78.8736 657.251 81.0418 655.244 82.2464 651.229C83.3706 647.375 84.7358 635.252 85.2176 624.654C85.4585 620.077 85.8601 615.902 86.2616 615.42C88.9919 611.727 89.4738 599.362 87.3055 588.845C85.1373 578.487 84.4949 566.524 84.5752 532.241C84.5752 499.001 84.6555 496.191 86.101 492.176C88.8313 484.549 89.5541 484.629 101.519 494.103C110.514 501.329 116.697 504.38 125.771 506.227C135.087 508.074 150.505 507.512 157.893 504.942C162.31 503.417 164.157 503.256 170.019 503.658C179.897 504.3 197.242 508.796 201.9 511.847C203.827 513.132 203.827 513.373 203.345 520.519C202.703 529.752 204.63 550.226 206.156 551.189C206.558 551.43 206.879 552.152 206.879 552.875C206.879 554.561 211.858 564.437 228.159 595.268C249.039 634.69 249.36 635.412 251.769 645.609C253.857 654.12 253.857 654.361 251.93 657.652C251.046 659.098 249.761 662.068 249.039 664.316C246.067 673.309 240.366 681.418 225.831 697.155C221.815 701.49 217.479 706.468 216.114 708.154C214.829 709.921 213.464 711.286 213.062 711.286C212.661 711.286 211.055 710.162 209.449 708.797C205.112 705.023 202.061 703.979 196.68 704.541C190.979 705.184 188.088 706.87 183.028 712.41C176.604 719.475 173.713 727.263 176.765 729.752C177.648 730.475 178.772 730.475 181.744 729.752C184.715 728.949 186.642 728.949 189.854 729.672C192.183 730.154 196.439 730.555 199.25 730.555C203.024 730.555 205.835 731.117 209.609 732.643C213.946 734.489 215.391 734.73 219.165 734.248C226.473 733.285 231.452 728.146 239.402 713.293C248.637 696.031 248.878 695.709 257.792 687.841C267.107 679.571 267.91 679.009 273.21 675.316C284.212 667.929 287.103 655.966 281.883 639.828C280.518 635.894 280.036 634.77 274.335 622.566C269.837 613.012 268.553 608.756 266.304 596.472C264.056 584.509 261.887 574.874 258.916 563.955C257.551 559.057 256.427 553.839 256.346 552.393C256.266 549.824 256.507 549.503 259.077 548.861C260.602 548.459 266.625 547.817 272.327 547.496C282.847 546.773 289.191 545.89 294.411 544.364C295.936 543.883 297.783 543.642 298.426 543.883C299.149 544.124 301.236 547.255 303.083 550.948C304.93 554.561 307.5 559.298 308.785 561.546C315.45 573.188 317.217 576.56 319.225 581.378C320.429 584.268 323.882 594.144 324.846 597.275C325.328 598.8 326.372 602.253 327.255 604.902C328.058 607.552 329.423 611.888 330.146 614.537C330.869 617.187 331.832 620.238 332.154 621.362C333.519 625.778 334.402 629.31 337.373 643.04C339.22 651.229 341.228 657.893 345.564 669.937C347.572 675.557 347.813 676.28 350.062 681.579C350.704 683.104 351.989 686.557 353.033 689.206C354.077 691.856 355.121 694.345 355.442 694.826C357.369 697.476 360.662 708.877 366.765 733.365C374.153 763.072 377.124 774.152 378.73 778.327C381.38 785.071 382.745 787.56 385.395 790.21C388.206 793.02 388.688 794.144 390.053 801.049C390.936 805.384 391.82 811.005 392.061 813.654C392.703 820.559 393.747 822.727 397.04 824.092C400.091 825.376 411.334 826.902 417.678 826.902C421.854 826.822 425.066 825.296 424.102 823.69C423.781 823.128 424.584 823.048 426.833 823.369C432.133 824.252 432.052 822.085 426.431 816.464C423.861 813.815 420.408 809.238 418.802 806.268C417.196 803.217 413.663 797.195 411.013 792.779C407.399 787.079 406.034 784.028 406.034 781.94C405.953 775.356 399.931 757.211 391.82 738.985C384.191 721.884 382.344 717.468 380.015 710.322C375.598 696.673 372.306 677.243 372.306 664.236C372.306 655.003 370.379 645.609 366.685 636.938C363.071 628.186 363.071 628.026 361.786 596.071C360.903 573.269 359.457 554.16 357.53 540.43C355.763 527.985 355.603 513.052 357.289 510.563C361.224 504.541 363.472 487.439 363.472 463.433C363.472 449.623 363.553 448.579 365.4 445.368C366.363 443.441 368.612 439.346 370.298 436.295C376.642 424.573 383.709 413.092 385.958 411.004C387.082 409.96 393.024 401.129 396.799 394.946C402.34 385.793 406.917 376.159 410.049 366.845C412.378 359.78 416.473 348.539 418.079 344.766C419.685 340.831 420.488 337.941 421.532 331.919C423.861 319.314 426.351 301.971 429.001 279.972C430.767 264.637 431.33 263.834 440.966 261.586C445.062 260.623 450.201 258.053 454.698 254.681C456.144 253.637 459.838 252.272 463.13 251.55C466.342 250.908 469.233 250.185 469.635 249.944C469.956 249.703 475.738 249.302 482.403 248.981L494.609 248.338L498.946 243.681C502.72 239.587 503.202 238.704 502.8 236.696C502.399 234.85 502.72 233.806 504.326 231.879C508.261 227.303 508.02 224.974 502.72 216.142C501.194 213.734 499.99 211.245 499.99 210.683C499.99 209.237 497.581 207.391 493.565 205.785C491.558 204.982 485.535 201.369 480.074 197.676C474.614 194.063 468.992 190.53 467.627 189.888C466.182 189.326 463.291 187.961 461.042 186.997C454.457 184.107 450.281 180.173 449.719 176.479C449.398 174.713 448.434 172.144 447.471 170.699C445.624 167.889 438.878 164.195 434.221 163.392C420.007 160.984 420.087 161.064 420.167 158.334C420.408 152.714 421.773 151.429 434.622 144.043C438.557 141.795 443.696 138.021 446.186 135.612C450.522 131.277 458.071 120.759 462.488 112.73C467.306 103.898 472.365 92.8985 475.898 83.4243C479.03 74.994 479.352 74.1911 481.118 70.1766C484.973 61.4251 486.74 52.4327 485.776 46.2504C485.294 43.0389 483.929 42.1557 483.929 44.9658C483.929 50.1043 474.935 70.2569 472.285 71.1401C471.803 71.3007 470.92 69.1329 470.357 66.403C468.751 59.177 466.021 51.1481 462.327 42.3966C457.83 31.959 449.719 20.2368 448.113 21.7623C448.033 21.9228 449.478 25.295 451.486 29.2291C453.413 33.2436 455.019 36.9369 455.019 37.4989C455.019 38.061 455.341 39.1047 455.822 39.9076C456.224 40.6302 457.83 45.2067 459.436 50.1043C463.371 62.3886 463.451 62.7097 465.941 72.7459C468.591 83.6652 468.671 83.1835 459.115 99.4822C450.04 114.898 450.844 114.015 447.792 111.124C444.58 108.073 441.93 102.935 438.959 93.9422C435.104 82.1397 435.104 80.5339 438.557 72.505C443.536 61.0237 444.981 51.8707 442.893 45.6081C440.806 39.5864 438.798 39.5864 440.002 45.6081C440.966 50.2649 439.36 58.5347 436.068 65.5198C434.14 69.7752 431.731 71.2204 431.731 68.2497C431.731 67.3665 431.41 66.4833 431.008 66.1622C430.607 65.9213 429.964 64.5564 429.643 63.1915C429.402 61.7463 428.439 58.3741 427.636 55.7246C426.752 53.075 425.789 49.6226 425.387 48.0971C424.905 46.5716 423.781 42.236 422.817 38.4624C420.248 28.908 416.634 21.2002 415.188 22.6454C414.787 22.9666 415.108 24.3315 417.999 35.6523C420.248 44.0826 422.576 55.8049 423.701 63.7535C425.307 75.3151 426.351 80.5339 427.796 84.7892C428.599 87.2782 428.92 89.2052 428.439 89.446C428.037 89.7672 424.584 87.9205 420.81 85.4316C416.955 82.9426 413.663 81.0959 413.502 81.3368C412.699 82.0594 415.51 85.5921 418.963 88.4023C427.154 94.9057 432.775 100.847 434.542 104.701C436.469 109.117 439.36 123.087 438.637 124.854C438.075 126.299 425.548 134.488 422.898 135.05C421.773 135.291 419.284 135.933 417.357 136.415C415.429 136.897 413.341 137.138 412.86 136.897C412.297 136.736 411.494 134.809 410.932 132.642C410.37 130.554 409.647 127.503 409.166 125.897C408.764 124.292 408.443 121.562 408.443 119.795C408.443 118.029 407.881 112.73 407.238 107.913C405.953 98.6793 402.42 89.6869 398.405 85.3513C395.996 82.782 395.915 83.5046 397.923 89.2052C400.734 97.3144 401.376 101.57 402.018 118.43C402.5 132.642 402.902 136.255 404.428 141.152C406.275 146.933 406.194 149.261 403.946 157.049C403.625 158.254 395.353 158.414 386.439 157.371C382.424 156.969 380.658 156.407 379.774 155.203C379.212 154.4 376.642 151.51 374.233 148.86C368.05 142.196 365.078 135.05 365.078 127.182C365.078 123.89 365.4 121.08 365.801 120.839C367.086 120.036 368.371 111.124 368.13 105.102L367.889 99.0807L366.363 105.102C365.48 108.394 363.954 113.292 362.83 115.941C360.019 122.766 357.851 131.357 357.851 135.773C357.851 138.583 357.53 139.627 356.646 139.627C355.603 139.627 349.018 137.459 344.601 135.612C343.075 135.05 328.058 131.437 310.471 127.583C306.296 126.62 300.514 125.335 297.623 124.693C294.732 123.97 290.797 123.087 288.789 122.686C273.933 119.394 272.728 118.912 267.027 113.212C259.88 105.986 255.864 98.7596 255.864 92.9787C255.864 85.4316 259.157 77.3224 265.742 68.5708C273.692 57.9727 283.329 51.3087 296.82 46.9731C308.062 43.2797 313.684 40.2288 320.429 34.1268C324.685 30.2729 322.357 30.2729 315.932 34.1268C313.282 35.7326 309.99 37.3384 308.624 37.6595C286.942 42.9586 274.174 48.0168 264.698 55.002C261.968 57.0092 259.237 58.4544 258.675 58.2135C258.113 58.053 257.471 56.688 257.149 55.1625C254.419 41.2725 254.74 32.6816 258.274 25.6161C262.369 17.5069 264.296 6.02558 262.369 1.12794C261.887 0.00389094 261.405 1.04765 260.362 5.54384Z" fill="#B7AC92"/>
<path d="M144.497 400.491C99.8093 427.942 41.4524 422.915 49.9949 373.262C59.0714 343.897 86.7529 314.768 109.259 304.921C134.886 293.709 196.82 299.048 202.693 328.413C208.566 357.778 181.87 377.533 144.497 400.491Z" fill="#E28532" stroke="#E7E0D6" stroke-width="3" stroke-linecap="round" stroke-linejoin="round" stroke-dasharray="3 7"/>
</svg>
